<?xml version="1.0" encoding="UTF-8"?><svg xmlns="http://www.w3.org/2000/svg" xmlns:xlink="http://www.w3.org/1999/xlink" width="375" zoomAndPan="magnify" viewBox="0 0 375 374.999991" height="374.999991" preserveAspectRatio="xMidYMid meet" version="1.0"><defs><clipPath id="clip-0"><path d="M 66.347656 66.347656 L 308.597656 66.347656 L 308.597656 308.597656 L 66.347656 308.597656 Z M 66.347656 66.347656 " clip-rule="nonzero"/></clipPath></defs><g clip-path="url(#clip-0)"><path fill="rgb(23.139954%, 34.899902%, 59.609985%)" d="M 102.683594 66.347656 L 272.257812 66.347656 C 273.449219 66.347656 274.636719 66.40625 275.820312 66.519531 C 277.003906 66.636719 278.179688 66.8125 279.347656 67.042969 C 280.515625 67.277344 281.667969 67.566406 282.808594 67.910156 C 283.945312 68.257812 285.066406 68.65625 286.164062 69.113281 C 287.265625 69.566406 288.339844 70.074219 289.386719 70.636719 C 290.4375 71.199219 291.457031 71.808594 292.445312 72.46875 C 293.4375 73.132812 294.390625 73.839844 295.3125 74.59375 C 296.230469 75.347656 297.113281 76.148438 297.953125 76.988281 C 298.792969 77.832031 299.59375 78.710938 300.347656 79.632812 C 301.101562 80.550781 301.8125 81.507812 302.472656 82.496094 C 303.132812 83.484375 303.746094 84.503906 304.304688 85.554688 C 304.867188 86.605469 305.375 87.679688 305.828125 88.777344 C 306.285156 89.878906 306.6875 90.996094 307.03125 92.136719 C 307.375 93.273438 307.664062 94.425781 307.898438 95.59375 C 308.128906 96.761719 308.304688 97.9375 308.421875 99.121094 C 308.539062 100.304688 308.597656 101.492188 308.597656 102.683594 L 308.597656 272.257812 C 308.597656 273.449219 308.539062 274.636719 308.421875 275.820312 C 308.304688 277.003906 308.128906 278.179688 307.898438 279.347656 C 307.664062 280.515625 307.375 281.667969 307.03125 282.808594 C 306.6875 283.945312 306.285156 285.066406 305.828125 286.164062 C 305.375 287.265625 304.867188 288.339844 304.304688 289.386719 C 303.746094 290.4375 303.132812 291.457031 302.472656 292.445312 C 301.8125 293.4375 301.101562 294.390625 300.347656 295.3125 C 299.59375 296.230469 298.792969 297.113281 297.953125 297.953125 C 297.113281 298.792969 296.230469 299.59375 295.3125 300.347656 C 294.390625 301.101562 293.4375 301.8125 292.445312 302.472656 C 291.457031 303.132812 290.4375 303.746094 289.386719 304.304688 C 288.339844 304.867188 287.265625 305.375 286.164062 305.828125 C 285.066406 306.285156 283.945312 306.6875 282.808594 307.03125 C 281.667969 307.375 280.515625 307.664062 279.347656 307.898438 C 278.179688 308.128906 277.003906 308.304688 275.820312 308.421875 C 274.636719 308.539062 273.449219 308.597656 272.257812 308.597656 L 102.683594 308.597656 C 101.492188 308.597656 100.304688 308.539062 99.121094 308.421875 C 97.9375 308.304688 96.761719 308.128906 95.59375 307.898438 C 94.425781 307.664062 93.273438 307.375 92.136719 307.03125 C 90.996094 306.6875 89.878906 306.285156 88.777344 305.828125 C 87.679688 305.375 86.605469 304.867188 85.554688 304.304688 C 84.503906 303.746094 83.484375 303.132812 82.496094 302.472656 C 81.507812 301.8125 80.550781 301.101562 79.632812 300.347656 C 78.710938 299.59375 77.832031 298.792969 76.988281 297.953125 C 76.148438 297.113281 75.347656 296.230469 74.59375 295.3125 C 73.839844 294.390625 73.132812 293.4375 72.46875 292.445312 C 71.808594 291.457031 71.199219 290.4375 70.636719 289.386719 C 70.074219 288.339844 69.566406 287.265625 69.113281 286.164062 C 68.65625 285.066406 68.257812 283.945312 67.910156 282.808594 C 67.566406 281.667969 67.277344 280.515625 67.042969 279.347656 C 66.8125 278.179688 66.636719 277.003906 66.519531 275.820312 C 66.40625 274.636719 66.347656 273.449219 66.347656 272.257812 L 66.347656 102.683594 C 66.347656 101.492188 66.40625 100.304688 66.519531 99.121094 C 66.636719 97.9375 66.8125 96.761719 67.042969 95.59375 C 67.277344 94.425781 67.566406 93.273438 67.910156 92.136719 C 68.257812 90.996094 68.65625 89.878906 69.113281 88.777344 C 69.566406 87.679688 70.074219 86.605469 70.636719 85.554688 C 71.199219 84.503906 71.808594 83.484375 72.46875 82.496094 C 73.132812 81.507812 73.839844 80.550781 74.59375 79.632812 C 75.347656 78.710938 76.148438 77.832031 76.988281 76.988281 C 77.832031 76.148438 78.710938 75.347656 79.632812 74.59375 C 80.550781 73.839844 81.507812 73.132812 82.496094 72.46875 C 83.484375 71.808594 84.503906 71.199219 85.554688 70.636719 C 86.605469 70.074219 87.679688 69.566406 88.777344 69.113281 C 89.878906 68.65625 90.996094 68.257812 92.136719 67.910156 C 93.273438 67.566406 94.425781 67.277344 95.59375 67.042969 C 96.761719 66.8125 97.9375 66.636719 99.121094 66.519531 C 100.304688 66.40625 101.492188 66.347656 102.683594 66.347656 Z M 102.683594 66.347656 " fill-opacity="1" fill-rule="nonzero"/></g><path fill="rgb(100%, 100%, 100%)" d="M 202.136719 282.101562 L 202.136719 140.628906 C 202.136719 130.695312 204.976562 124.070312 218.699219 124.070312 L 236.679688 124.070312 L 236.679688 94.261719 C 233.367188 93.789062 222.957031 92.84375 210.65625 92.84375 C 185.105469 92.84375 167.597656 108.457031 167.597656 137.316406 L 167.597656 282.101562 M 235.257812 161.921875 L 138.265625 161.921875 L 138.265625 195.988281 L 231 195.988281 " fill-opacity="1" fill-rule="nonzero"/></svg>