<?xml version="1.0" encoding="UTF-8"?><svg xmlns="http://www.w3.org/2000/svg" xmlns:xlink="http://www.w3.org/1999/xlink" width="375" zoomAndPan="magnify" viewBox="0 0 375 374.999991" height="374.999991" preserveAspectRatio="xMidYMid meet" version="1.0"><defs><clipPath id="clip-0"><path d="M 60.828125 110 L 150 110 L 150 265 L 60.828125 265 Z M 60.828125 110 " clip-rule="nonzero"/></clipPath><clipPath id="clip-1"><path d="M 311.164062 163.980469 L 190.414062 163.980469 L 190.414062 214.027344 L 259.917969 214.027344 C 253.4375 245.824219 226.34375 264.078125 190.414062 264.078125 C 148.003906 264.078125 113.839844 229.925781 113.839844 187.53125 C 113.839844 145.140625 148.003906 110.988281 190.414062 110.988281 C 208.671875 110.988281 225.164062 117.464844 238.125 128.066406 L 275.820312 90.382812 C 252.847656 70.363281 223.398438 57.996094 190.414062 57.996094 C 118.554688 57.996094 60.828125 115.699219 60.828125 187.53125 C 60.828125 259.367188 118.554688 317.066406 190.414062 317.066406 C 255.207031 317.066406 314.109375 269.964844 314.109375 187.53125 C 314.109375 179.878906 312.929688 171.636719 311.164062 163.980469 Z M 311.164062 163.980469 " clip-rule="nonzero"/></clipPath><clipPath id="clip-2"><path d="M 60.828125 57.035156 L 314.109375 57.035156 L 314.109375 188 L 60.828125 188 Z M 60.828125 57.035156 " clip-rule="nonzero"/></clipPath><clipPath id="clip-3"><path d="M 311.164062 163.980469 L 190.414062 163.980469 L 190.414062 214.027344 L 259.917969 214.027344 C 253.4375 245.824219 226.34375 264.078125 190.414062 264.078125 C 148.003906 264.078125 113.839844 229.925781 113.839844 187.53125 C 113.839844 145.140625 148.003906 110.988281 190.414062 110.988281 C 208.671875 110.988281 225.164062 117.464844 238.125 128.066406 L 275.820312 90.382812 C 252.847656 70.363281 223.398438 57.996094 190.414062 57.996094 C 118.554688 57.996094 60.828125 115.699219 60.828125 187.53125 C 60.828125 259.367188 118.554688 317.066406 190.414062 317.066406 C 255.207031 317.066406 314.109375 269.964844 314.109375 187.53125 C 314.109375 179.878906 312.929688 171.636719 311.164062 163.980469 Z M 311.164062 163.980469 " clip-rule="nonzero"/></clipPath><clipPath id="clip-4"><path d="M 60.828125 57.035156 L 314.109375 57.035156 L 314.109375 317.066406 L 60.828125 317.066406 Z M 60.828125 57.035156 " clip-rule="nonzero"/></clipPath><clipPath id="clip-5"><path d="M 311.164062 163.980469 L 190.414062 163.980469 L 190.414062 214.027344 L 259.917969 214.027344 C 253.4375 245.824219 226.34375 264.078125 190.414062 264.078125 C 148.003906 264.078125 113.839844 229.925781 113.839844 187.53125 C 113.839844 145.140625 148.003906 110.988281 190.414062 110.988281 C 208.671875 110.988281 225.164062 117.464844 238.125 128.066406 L 275.820312 90.382812 C 252.847656 70.363281 223.398438 57.996094 190.414062 57.996094 C 118.554688 57.996094 60.828125 115.699219 60.828125 187.53125 C 60.828125 259.367188 118.554688 317.066406 190.414062 317.066406 C 255.207031 317.066406 314.109375 269.964844 314.109375 187.53125 C 314.109375 179.878906 312.929688 171.636719 311.164062 163.980469 Z M 311.164062 163.980469 " clip-rule="nonzero"/></clipPath><clipPath id="clip-6"><path d="M 125 110 L 314.109375 110 L 314.109375 317.066406 L 125 317.066406 Z M 125 110 " clip-rule="nonzero"/></clipPath><clipPath id="clip-7"><path d="M 311.164062 163.980469 L 190.414062 163.980469 L 190.414062 214.027344 L 259.917969 214.027344 C 253.4375 245.824219 226.34375 264.078125 190.414062 264.078125 C 148.003906 264.078125 113.839844 229.925781 113.839844 187.53125 C 113.839844 145.140625 148.003906 110.988281 190.414062 110.988281 C 208.671875 110.988281 225.164062 117.464844 238.125 128.066406 L 275.820312 90.382812 C 252.847656 70.363281 223.398438 57.996094 190.414062 57.996094 C 118.554688 57.996094 60.828125 115.699219 60.828125 187.53125 C 60.828125 259.367188 118.554688 317.066406 190.414062 317.066406 C 255.207031 317.066406 314.109375 269.964844 314.109375 187.53125 C 314.109375 179.878906 312.929688 171.636719 311.164062 163.980469 Z M 311.164062 163.980469 " clip-rule="nonzero"/></clipPath></defs><g clip-path="url(#clip-0)"><g clip-path="url(#clip-1)"><path fill="rgb(98.429871%, 73.728943%, 1.959229%)" d="M 49.050781 264.078125 L 49.050781 110.988281 L 149.183594 187.53125 Z M 49.050781 264.078125 " fill-opacity="1" fill-rule="nonzero"/></g></g><g clip-path="url(#clip-2)"><g clip-path="url(#clip-3)"><path fill="rgb(91.758728%, 26.269531%, 20.779419%)" d="M 49.050781 110.988281 L 149.183594 187.53125 L 190.414062 151.617188 L 331.777344 128.652344 L 331.777344 46.222656 L 49.050781 46.222656 Z M 49.050781 110.988281 " fill-opacity="1" fill-rule="nonzero"/></g></g><g clip-path="url(#clip-4)"><g clip-path="url(#clip-5)"><path fill="rgb(20.388794%, 65.879822%, 32.548523%)" d="M 49.050781 264.078125 L 225.753906 128.652344 L 272.289062 134.542969 L 331.777344 46.222656 L 331.777344 328.84375 L 49.050781 328.84375 Z M 49.050781 264.078125 " fill-opacity="1" fill-rule="nonzero"/></g></g><g clip-path="url(#clip-6)"><g clip-path="url(#clip-7)"><path fill="rgb(25.878906%, 52.159119%, 95.689392%)" d="M 331.777344 328.84375 L 149.183594 187.53125 L 125.621094 169.871094 L 331.777344 110.988281 Z M 331.777344 328.84375 " fill-opacity="1" fill-rule="nonzero"/></g></g></svg>