<?xml version="1.0" encoding="UTF-8"?><svg xmlns="http://www.w3.org/2000/svg" xmlns:xlink="http://www.w3.org/1999/xlink" width="375" zoomAndPan="magnify" viewBox="0 0 375 374.999991" height="374.999991" preserveAspectRatio="xMidYMid meet" version="1.0"><defs><clipPath id="clip-0"><path d="M 52.015625 38.761719 L 316 38.761719 L 316 336 L 52.015625 336 Z M 52.015625 38.761719 " clip-rule="nonzero"/></clipPath></defs><path fill="rgb(96.078491%, 23.919678%, 41.958618%)" d="M 195.097656 257.679688 C 180.132812 247.164062 154.050781 242.546875 125.640625 246.972656 C 83.597656 253.492188 52.433594 277.242188 55.949219 300.035156 C 59.464844 322.832031 96.378906 336.058594 138.421875 329.539062 C 175.144531 323.78125 205.738281 304.9375 209.964844 285.046875 L 210.679688 141.136719 C 232.007812 131.382812 284.789062 162.265625 292.4375 184.347656 C 296.710938 200.382812 309.539062 200.382812 279.609375 228.273438 C 279.609375 242.167969 291.34375 247.546875 293.480469 243.261719 C 322.363281 196.101562 308.445312 172.546875 298.847656 158.652344 C 294.429688 152.277344 262.644531 126.734375 241.960938 102.296875 C 221.277344 77.855469 211.695312 54.519531 196.085938 39.699219 L 195.09375 257.683594 Z M 195.097656 257.679688 " fill-opacity="1" fill-rule="evenodd"/><g clip-path="url(#clip-0)"><path stroke-linecap="butt" transform="matrix(0.760107, 0, 0, 0.761418, 11.196771, 7.601121)" fill="none" stroke-linejoin="miter" d="M 241.940901 328.43795 C 222.25308 314.627369 187.939432 308.563436 150.562892 314.375987 C 95.250957 322.938342 54.251365 354.130145 58.876538 384.065041 C 63.501712 414.005068 112.066032 431.376029 167.377967 422.813674 C 215.690473 415.251714 255.939759 390.503481 261.500245 364.380346 L 262.440697 175.377516 C 290.500083 162.56733 359.939353 203.126934 370.001674 232.128129 C 375.623829 253.187726 392.500573 253.187726 353.12493 289.817573 C 353.12493 308.065804 368.562731 315.130131 371.373809 309.502268 C 409.372178 247.564993 391.06163 216.629702 378.434907 198.381471 C 372.622606 190.008934 330.805899 156.462356 303.594462 124.367632 C 276.383026 92.267779 263.776859 61.619781 243.241089 42.155685 L 241.935762 328.44308 Z M 241.940901 328.43795 " stroke="rgb(0%, 0%, 0%)" stroke-width="1" stroke-opacity="1" stroke-miterlimit="4"/></g></svg>