<?xml version="1.0" encoding="UTF-8"?><svg xmlns="http://www.w3.org/2000/svg" xmlns:xlink="http://www.w3.org/1999/xlink" width="375" zoomAndPan="magnify" viewBox="0 0 375 374.999991" height="374.999991" preserveAspectRatio="xMidYMid meet" version="1.0"><defs><clipPath id="clip-0"><path d="M 24.039062 24.039062 L 345.039062 24.039062 L 345.039062 345.039062 L 24.039062 345.039062 Z M 24.039062 24.039062 " clip-rule="nonzero"/></clipPath></defs><g clip-path="url(#clip-0)"><path fill="rgb(10.5896%, 61.569214%, 94.119263%)" d="M 345.039062 184.539062 C 345.039062 187.164062 344.972656 189.789062 344.84375 192.414062 C 344.714844 195.039062 344.523438 197.65625 344.265625 200.269531 C 344.007812 202.882812 343.6875 205.492188 343.300781 208.089844 C 342.914062 210.6875 342.46875 213.273438 341.953125 215.851562 C 341.441406 218.425781 340.867188 220.988281 340.226562 223.535156 C 339.589844 226.085938 338.890625 228.617188 338.128906 231.128906 C 337.363281 233.644531 336.542969 236.136719 335.65625 238.609375 C 334.769531 241.082031 333.828125 243.53125 332.820312 245.960938 C 331.816406 248.386719 330.75 250.785156 329.628906 253.160156 C 328.503906 255.535156 327.324219 257.882812 326.085938 260.199219 C 324.847656 262.515625 323.554688 264.800781 322.203125 267.050781 C 320.851562 269.304688 319.449219 271.523438 317.988281 273.707031 C 316.53125 275.890625 315.019531 278.039062 313.453125 280.148438 C 311.886719 282.257812 310.273438 284.328125 308.605469 286.359375 C 306.941406 288.390625 305.226562 290.378906 303.460938 292.324219 C 301.695312 294.269531 299.886719 296.171875 298.027344 298.027344 C 296.171875 299.886719 294.269531 301.695312 292.324219 303.460938 C 290.378906 305.226562 288.390625 306.941406 286.359375 308.605469 C 284.328125 310.273438 282.257812 311.886719 280.148438 313.453125 C 278.039062 315.019531 275.890625 316.53125 273.707031 317.988281 C 271.523438 319.449219 269.304688 320.851562 267.050781 322.203125 C 264.800781 323.554688 262.515625 324.847656 260.199219 326.085938 C 257.882812 327.324219 255.535156 328.503906 253.160156 329.628906 C 250.785156 330.75 248.386719 331.816406 245.960938 332.820312 C 243.53125 333.828125 241.082031 334.769531 238.609375 335.65625 C 236.136719 336.542969 233.644531 337.363281 231.128906 338.128906 C 228.617188 338.890625 226.085938 339.589844 223.535156 340.226562 C 220.988281 340.867188 218.425781 341.441406 215.851562 341.953125 C 213.273438 342.46875 210.6875 342.914062 208.089844 343.300781 C 205.492188 343.6875 202.882812 344.007812 200.269531 344.265625 C 197.65625 344.523438 195.039062 344.714844 192.414062 344.84375 C 189.789062 344.972656 187.164062 345.039062 184.539062 345.039062 C 181.910156 345.039062 179.285156 344.972656 176.664062 344.84375 C 174.039062 344.714844 171.421875 344.523438 168.808594 344.265625 C 166.191406 344.007812 163.585938 343.6875 160.988281 343.300781 C 158.390625 342.914062 155.800781 342.46875 153.226562 341.953125 C 150.648438 341.441406 148.089844 340.867188 145.539062 340.226562 C 142.992188 339.589844 140.460938 338.890625 137.949219 338.128906 C 135.433594 337.363281 132.941406 336.542969 130.46875 335.65625 C 127.996094 334.769531 125.542969 333.828125 123.117188 332.820312 C 120.691406 331.816406 118.289062 330.75 115.914062 329.628906 C 113.542969 328.503906 111.195312 327.324219 108.878906 326.085938 C 106.5625 324.847656 104.277344 323.554688 102.023438 322.203125 C 99.773438 320.851562 97.554688 319.449219 95.371094 317.988281 C 93.183594 316.53125 91.039062 315.019531 88.929688 313.453125 C 86.820312 311.886719 84.75 310.273438 82.71875 308.605469 C 80.6875 306.941406 78.699219 305.226562 76.753906 303.460938 C 74.808594 301.695312 72.90625 299.886719 71.046875 298.027344 C 69.191406 296.171875 67.378906 294.269531 65.617188 292.324219 C 63.851562 290.378906 62.136719 288.390625 60.46875 286.359375 C 58.804688 284.328125 57.1875 282.257812 55.625 280.148438 C 54.058594 278.039062 52.546875 275.890625 51.085938 273.707031 C 49.628906 271.523438 48.222656 269.304688 46.871094 267.050781 C 45.523438 264.800781 44.226562 262.515625 42.988281 260.199219 C 41.75 257.882812 40.570312 255.535156 39.449219 253.160156 C 38.324219 250.785156 37.261719 248.386719 36.253906 245.960938 C 35.25 243.53125 34.304688 241.082031 33.421875 238.609375 C 32.535156 236.136719 31.710938 233.644531 30.949219 231.128906 C 30.1875 228.617188 29.488281 226.085938 28.847656 223.535156 C 28.210938 220.988281 27.636719 218.425781 27.121094 215.851562 C 26.609375 213.273438 26.160156 210.6875 25.777344 208.089844 C 25.390625 205.492188 25.070312 202.882812 24.8125 200.269531 C 24.554688 197.65625 24.359375 195.039062 24.230469 192.414062 C 24.101562 189.789062 24.039062 187.164062 24.039062 184.539062 C 24.039062 181.910156 24.101562 179.285156 24.230469 176.664062 C 24.359375 174.039062 24.554688 171.421875 24.8125 168.808594 C 25.070312 166.191406 25.390625 163.585938 25.777344 160.988281 C 26.160156 158.390625 26.609375 155.800781 27.121094 153.226562 C 27.636719 150.648438 28.210938 148.089844 28.847656 145.539062 C 29.488281 142.992188 30.1875 140.460938 30.949219 137.949219 C 31.710938 135.433594 32.535156 132.941406 33.421875 130.46875 C 34.304688 127.996094 35.25 125.542969 36.253906 123.117188 C 37.261719 120.691406 38.324219 118.289062 39.449219 115.914062 C 40.570312 113.542969 41.75 111.195312 42.988281 108.878906 C 44.226562 106.5625 45.523438 104.277344 46.871094 102.023438 C 48.222656 99.773438 49.628906 97.554688 51.085938 95.371094 C 52.546875 93.183594 54.058594 91.039062 55.625 88.929688 C 57.1875 86.820312 58.804688 84.75 60.46875 82.71875 C 62.136719 80.6875 63.851562 78.699219 65.617188 76.753906 C 67.378906 74.808594 69.191406 72.90625 71.046875 71.046875 C 72.90625 69.191406 74.808594 67.378906 76.753906 65.617188 C 78.699219 63.851562 80.6875 62.136719 82.71875 60.46875 C 84.75 58.804688 86.820312 57.1875 88.929688 55.625 C 91.039062 54.058594 93.183594 52.546875 95.371094 51.085938 C 97.554688 49.628906 99.773438 48.222656 102.023438 46.871094 C 104.277344 45.523438 106.5625 44.226562 108.878906 42.988281 C 111.195312 41.75 113.542969 40.570312 115.914062 39.449219 C 118.289062 38.324219 120.691406 37.261719 123.117188 36.253906 C 125.542969 35.25 127.996094 34.304688 130.46875 33.421875 C 132.941406 32.535156 135.433594 31.710938 137.949219 30.949219 C 140.460938 30.1875 142.992188 29.488281 145.539062 28.847656 C 148.089844 28.210938 150.648438 27.636719 153.226562 27.121094 C 155.800781 26.609375 158.390625 26.160156 160.988281 25.777344 C 163.585938 25.390625 166.191406 25.070312 168.808594 24.8125 C 171.421875 24.554688 174.039062 24.359375 176.664062 24.230469 C 179.285156 24.101562 181.910156 24.039062 184.539062 24.039062 C 187.164062 24.039062 189.789062 24.101562 192.414062 24.230469 C 195.039062 24.359375 197.65625 24.554688 200.269531 24.8125 C 202.882812 25.070312 205.492188 25.390625 208.089844 25.777344 C 210.6875 26.160156 213.273438 26.609375 215.851562 27.121094 C 218.425781 27.636719 220.988281 28.210938 223.535156 28.847656 C 226.085938 29.488281 228.617188 30.1875 231.128906 30.949219 C 233.644531 31.710938 236.136719 32.535156 238.609375 33.421875 C 241.082031 34.304688 243.53125 35.25 245.960938 36.253906 C 248.386719 37.261719 250.785156 38.324219 253.160156 39.449219 C 255.535156 40.570312 257.882812 41.75 260.199219 42.988281 C 262.515625 44.226562 264.800781 45.523438 267.050781 46.871094 C 269.304688 48.222656 271.523438 49.628906 273.707031 51.085938 C 275.890625 52.546875 278.039062 54.058594 280.148438 55.625 C 282.257812 57.1875 284.328125 58.804688 286.359375 60.46875 C 288.390625 62.136719 290.378906 63.851562 292.324219 65.617188 C 294.269531 67.378906 296.171875 69.191406 298.027344 71.046875 C 299.886719 72.90625 301.695312 74.808594 303.460938 76.753906 C 305.226562 78.699219 306.941406 80.6875 308.605469 82.71875 C 310.273438 84.75 311.886719 86.820312 313.453125 88.929688 C 315.019531 91.039062 316.53125 93.183594 317.988281 95.371094 C 319.449219 97.554688 320.851562 99.773438 322.203125 102.023438 C 323.554688 104.277344 324.847656 106.5625 326.085938 108.878906 C 327.324219 111.195312 328.503906 113.542969 329.628906 115.914062 C 330.75 118.289062 331.816406 120.691406 332.820312 123.117188 C 333.828125 125.542969 334.769531 127.996094 335.65625 130.46875 C 336.542969 132.941406 337.363281 135.433594 338.128906 137.949219 C 338.890625 140.460938 339.589844 142.992188 340.226562 145.539062 C 340.867188 148.089844 341.441406 150.648438 341.953125 153.226562 C 342.46875 155.800781 342.914062 158.390625 343.300781 160.988281 C 343.6875 163.585938 344.007812 166.191406 344.265625 168.808594 C 344.523438 171.421875 344.714844 174.039062 344.84375 176.664062 C 344.972656 179.285156 345.039062 181.910156 345.039062 184.539062 Z M 345.039062 184.539062 " fill-opacity="1" fill-rule="nonzero"/></g><path fill="rgb(100%, 100%, 100%)" d="M 155.167969 269.203125 C 226.347656 269.203125 265.269531 210.21875 265.269531 159.097656 C 265.269531 157.414062 265.269531 155.730469 265.191406 154.125 C 272.734375 148.667969 279.3125 141.84375 284.53125 134.0625 C 277.628906 137.109375 270.164062 139.195312 262.300781 140.160156 C 270.324219 135.34375 276.425781 127.800781 279.3125 118.734375 C 271.851562 123.148438 263.585938 126.355469 254.757812 128.121094 C 247.695312 120.578125 237.664062 115.925781 226.507812 115.925781 C 205.164062 115.925781 187.828125 133.257812 187.828125 154.605469 C 187.828125 157.65625 188.148438 160.625 188.871094 163.433594 C 156.691406 161.828125 128.203125 146.417969 109.101562 122.988281 C 105.8125 128.683594 103.886719 135.34375 103.886719 142.40625 C 103.886719 155.808594 110.707031 167.6875 121.140625 174.585938 C 114.800781 174.425781 108.863281 172.660156 103.644531 169.773438 C 103.644531 169.933594 103.644531 170.09375 103.644531 170.253906 C 103.644531 189.03125 116.96875 204.601562 134.703125 208.210938 C 131.492188 209.09375 128.042969 209.578125 124.511719 209.578125 C 122.023438 209.578125 119.617188 209.335938 117.207031 208.855469 C 122.105469 224.261719 136.386719 235.417969 153.320312 235.738281 C 140.078125 246.089844 123.386719 252.269531 105.25 252.269531 C 102.121094 252.269531 99.070312 252.109375 96.023438 251.707031 C 112.957031 262.78125 133.339844 269.203125 155.167969 269.203125 " fill-opacity="1" fill-rule="nonzero"/></svg>