<?xml version="1.0" encoding="UTF-8"?><svg xmlns="http://www.w3.org/2000/svg" xmlns:xlink="http://www.w3.org/1999/xlink" width="5184" zoomAndPan="magnify" viewBox="0 0 5184 2592.000001" height="2592.000001" preserveAspectRatio="xMidYMid meet" version="1.0"><defs><clipPath id="clip-0"><path d="M 1142.84375 262 L 3005 262 L 3005 2231 L 1142.84375 2231 Z M 1142.84375 262 " clip-rule="nonzero"/></clipPath><clipPath id="clip-1"><path d="M 2023 328 L 3871.039062 328 L 3871.039062 2287 L 2023 2287 Z M 2023 328 " clip-rule="nonzero"/></clipPath></defs><path fill="rgb(100%, 100%, 100%)" d="M 1167.902344 753.4375 L 2452.765625 287.113281 L 2979.574219 1739.160156 L 1694.714844 2205.484375 Z M 1167.902344 753.4375 " fill-opacity="1" fill-rule="nonzero"/><g clip-path="url(#clip-0)"><path fill="rgb(52.549744%, 82.348633%, 89.408875%)" d="M 3004.703125 1750.917969 L 1682.988281 2230.621094 L 1142.84375 741.734375 L 2464.535156 262.046875 Z M 1706.4375 2180.472656 L 2954.5625 1727.484375 L 2441.097656 312.179688 L 1192.972656 765.167969 Z M 1706.4375 2180.472656 " fill-opacity="1" fill-rule="nonzero"/></g><path fill="rgb(14.898682%, 74.508667%, 78.819275%)" d="M 2743.074219 1417.933594 L 1661.453125 1810.445312 L 1306.835938 832.871094 L 2388.382812 440.34375 Z M 2743.074219 1417.933594 " fill-opacity="1" fill-rule="nonzero"/><path fill="rgb(52.549744%, 82.348633%, 89.408875%)" d="M 2347.976562 1779.511719 L 1731.453125 2003.304688 L 1698.566406 1912.667969 L 2315.121094 1688.949219 Z M 2347.976562 1779.511719 " fill-opacity="1" fill-rule="nonzero"/><path fill="rgb(100%, 100%, 100%)" d="M 1780.65625 457.714844 L 3147.007812 495.992188 L 3103.765625 2040.085938 L 1737.410156 2001.808594 Z M 1780.65625 457.714844 " fill-opacity="1" fill-rule="nonzero"/><path fill="rgb(52.549744%, 82.348633%, 89.408875%)" d="M 3122.875 2060.105469 L 1717.398438 2020.785156 L 1761.671875 437.554688 L 3167.121094 476.847656 Z M 1757.613281 1982.769531 L 3084.875 2019.890625 L 3126.929688 514.90625 L 1799.695312 477.800781 Z M 1757.613281 1982.769531 " fill-opacity="1" fill-rule="nonzero"/><path fill="rgb(52.549744%, 82.348633%, 89.408875%)" d="M 1880.71875 582.542969 L 3030.824219 614.652344 L 3001.8125 1654.183594 L 1851.710938 1622.078125 Z M 1880.71875 582.542969 " fill-opacity="1" fill-rule="nonzero"/><path fill="rgb(52.549744%, 82.348633%, 89.408875%)" d="M 1848.65625 1730.808594 L 2504.269531 1749.113281 L 2501.582031 1845.445312 L 1845.96875 1827.144531 Z M 1848.65625 1730.808594 " fill-opacity="1" fill-rule="nonzero"/><path fill="rgb(100%, 100%, 100%)" d="M 2554.917969 353.707031 L 3846.238281 802.136719 L 3339.65625 2261.453125 L 2048.335938 1813.023438 Z M 2554.917969 353.707031 " fill-opacity="1" fill-rule="nonzero"/><g clip-path="url(#clip-1)"><path fill="rgb(52.549744%, 82.348633%, 89.408875%)" d="M 3351.523438 2286.371094 L 2023.300781 1825.0625 L 2029.726562 1806.582031 L 2542.824219 328.859375 L 3871.039062 790.175781 L 3864.585938 808.628906 Z M 2073.132812 1800.917969 L 3327.402344 2236.601562 L 3821.195312 814.335938 L 2566.925781 378.65625 Z M 2073.132812 1800.917969 " fill-opacity="1" fill-rule="nonzero"/></g><path fill="rgb(14.898682%, 74.508667%, 78.819275%)" d="M 2612.667969 503.003906 L 3699.617188 880.460938 L 3358.585938 1862.875 L 2271.636719 1485.417969 Z M 2612.667969 503.003906 " fill-opacity="1" fill-rule="nonzero"/><path fill="rgb(52.549744%, 82.348633%, 89.408875%)" d="M 2235.945312 1588.167969 L 2855.550781 1803.332031 L 2823.941406 1894.394531 L 2204.335938 1679.226562 Z M 2235.945312 1588.167969 " fill-opacity="1" fill-rule="nonzero"/></svg>