<?xml version="1.0" encoding="UTF-8"?><svg xmlns="http://www.w3.org/2000/svg" xmlns:xlink="http://www.w3.org/1999/xlink" width="375" zoomAndPan="magnify" viewBox="0 0 375 374.999991" height="374.999991" preserveAspectRatio="xMidYMid meet" version="1.0"><defs><clipPath id="clip-0"><path d="M 47.253906 91 L 325 91 L 325 284 L 47.253906 284 Z M 47.253906 91 " clip-rule="nonzero"/></clipPath></defs><g clip-path="url(#clip-0)"><path fill="white" id="uploadFill" d="M 287.933594 283.25 L 226.351562 283.25 C 225.59375 283.179688 224.84375 283.078125 224.09375 282.941406 C 223.347656 282.800781 222.609375 282.628906 221.878906 282.421875 C 221.144531 282.21875 220.425781 281.976562 219.71875 281.707031 C 219.007812 281.433594 218.3125 281.128906 217.632812 280.789062 C 216.949219 280.453125 216.285156 280.085938 215.640625 279.6875 C 214.992188 279.289062 214.367188 278.859375 213.757812 278.402344 C 213.152344 277.949219 212.566406 277.464844 212.003906 276.953125 C 211.441406 276.441406 210.902344 275.90625 210.390625 275.347656 C 209.875 274.785156 209.390625 274.203125 208.929688 273.597656 C 208.46875 272.992188 208.039062 272.367188 207.636719 271.722656 C 207.238281 271.074219 206.867188 270.414062 206.523438 269.734375 C 206.183594 269.054688 205.875 268.359375 205.601562 267.652344 C 205.324219 266.945312 205.082031 266.222656 204.871094 265.492188 C 204.660156 264.761719 204.484375 264.023438 204.34375 263.277344 C 204.203125 262.53125 204.09375 261.777344 204.023438 261.019531 C 203.949219 260.265625 203.914062 259.503906 203.910156 258.746094 L 203.910156 225.410156 L 223.164062 225.410156 C 223.582031 225.402344 223.996094 225.351562 224.40625 225.261719 C 224.8125 225.171875 225.210938 225.042969 225.59375 224.878906 C 225.976562 224.714844 226.34375 224.515625 226.691406 224.28125 C 227.035156 224.046875 227.355469 223.78125 227.652344 223.484375 C 227.949219 223.1875 228.214844 222.867188 228.449219 222.519531 C 228.683594 222.175781 228.882812 221.808594 229.046875 221.421875 C 229.210938 221.039062 229.339844 220.640625 229.429688 220.234375 C 229.519531 219.824219 229.566406 219.410156 229.578125 218.992188 C 229.605469 218.445312 229.558594 217.902344 229.429688 217.367188 C 229.304688 216.832031 229.105469 216.324219 228.835938 215.847656 C 228.5625 215.367188 228.230469 214.9375 227.839844 214.550781 C 227.445312 214.167969 227.003906 213.847656 226.519531 213.589844 L 180.949219 168.207031 C 180.675781 167.898438 180.371094 167.621094 180.035156 167.375 C 179.703125 167.128906 179.347656 166.917969 178.96875 166.75 C 178.589844 166.578125 178.199219 166.449219 177.796875 166.363281 C 177.390625 166.273438 176.980469 166.230469 176.566406 166.230469 C 176.152344 166.230469 175.742188 166.273438 175.335938 166.363281 C 174.929688 166.449219 174.539062 166.578125 174.160156 166.75 C 173.78125 166.917969 173.425781 167.128906 173.09375 167.375 C 172.761719 167.621094 172.457031 167.898438 172.179688 168.207031 L 125.890625 214.378906 C 125.441406 214.796875 125.0625 215.273438 124.753906 215.808594 C 124.445312 216.339844 124.222656 216.90625 124.085938 217.507812 C 123.949219 218.105469 123.902344 218.714844 123.949219 219.328125 C 123.996094 219.941406 124.128906 220.535156 124.355469 221.109375 C 124.574219 221.722656 124.878906 222.292969 125.265625 222.816406 C 125.652344 223.339844 126.109375 223.796875 126.632812 224.183594 C 127.15625 224.570312 127.722656 224.875 128.335938 225.09375 C 128.949219 225.3125 129.582031 225.4375 130.234375 225.46875 L 144.328125 225.46875 L 144.328125 258.800781 C 144.34375 261.054688 144.5625 263.285156 144.988281 265.492188 C 145.414062 267.703125 146.035156 269.855469 146.859375 271.953125 C 147.683594 274.046875 148.691406 276.046875 149.882812 277.957031 C 151.078125 279.867188 152.433594 281.648438 153.957031 283.304688 L 110.261719 283.304688 C 108.15625 283.246094 106.0625 283.082031 103.972656 282.816406 C 101.886719 282.554688 99.816406 282.191406 97.765625 281.726562 C 95.710938 281.261719 93.6875 280.699219 91.691406 280.039062 C 89.691406 279.375 87.730469 278.621094 85.804688 277.769531 C 83.882812 276.917969 82 275.976562 80.167969 274.945312 C 78.335938 273.914062 76.554688 272.792969 74.828125 271.589844 C 73.105469 270.382812 71.441406 269.097656 69.839844 267.730469 C 68.238281 266.363281 66.707031 264.925781 65.246094 263.410156 C 63.785156 261.894531 62.398438 260.3125 61.089844 258.664062 C 59.78125 257.015625 58.554688 255.308594 57.410156 253.539062 C 56.269531 251.773438 55.210938 249.953125 54.246094 248.082031 C 53.277344 246.214844 52.402344 244.300781 51.621094 242.347656 C 50.835938 240.390625 50.152344 238.402344 49.5625 236.382812 C 48.96875 234.363281 48.480469 232.316406 48.085938 230.246094 C 47.695312 228.179688 47.402344 226.097656 47.210938 224 C 47.019531 221.902344 46.929688 219.800781 46.941406 217.695312 C 46.957031 215.636719 47.0625 213.585938 47.265625 211.539062 C 47.46875 209.492188 47.769531 207.460938 48.160156 205.441406 C 48.550781 203.421875 49.035156 201.425781 49.613281 199.453125 C 50.1875 197.476562 50.855469 195.535156 51.613281 193.625 C 52.371094 191.710938 53.214844 189.839844 54.144531 188.003906 C 55.074219 186.171875 56.089844 184.382812 57.183594 182.644531 C 58.28125 180.90625 59.457031 179.21875 60.707031 177.589844 C 61.960938 175.960938 63.285156 174.390625 64.683594 172.882812 C 66.082031 171.375 67.546875 169.9375 69.078125 168.566406 C 70.609375 167.191406 72.203125 165.894531 73.855469 164.671875 C 75.507812 163.449219 77.210938 162.304688 78.96875 161.238281 C 80.726562 160.175781 82.53125 159.191406 84.378906 158.296875 C 86.230469 157.398438 88.117188 156.585938 90.039062 155.863281 C 91.964844 155.144531 93.917969 154.511719 95.898438 153.96875 C 97.882812 153.429688 99.886719 152.980469 101.910156 152.625 C 103.933594 152.269531 105.96875 152.011719 108.019531 151.84375 C 108.675781 151.820312 109.3125 151.691406 109.929688 151.460938 C 110.546875 151.226562 111.109375 150.902344 111.617188 150.484375 C 112.128906 150.066406 112.554688 149.578125 112.90625 149.019531 C 113.253906 148.460938 113.503906 147.859375 113.65625 147.21875 C 114.175781 145.230469 114.777344 143.265625 115.460938 141.328125 C 116.140625 139.386719 116.902344 137.480469 117.742188 135.601562 C 118.582031 133.726562 119.5 131.890625 120.492188 130.089844 C 121.480469 128.289062 122.546875 126.53125 123.683594 124.820312 C 124.820312 123.105469 126.027344 121.445312 127.300781 119.832031 C 128.574219 118.21875 129.914062 116.664062 131.316406 115.160156 C 132.71875 113.660156 134.179688 112.21875 135.703125 110.835938 C 137.222656 109.457031 138.800781 108.140625 140.429688 106.890625 C 142.0625 105.640625 143.742188 104.460938 145.46875 103.347656 C 147.199219 102.238281 148.96875 101.199219 150.78125 100.234375 C 152.597656 99.269531 154.445312 98.382812 156.335938 97.570312 C 158.222656 96.757812 160.140625 96.027344 162.085938 95.375 C 164.035156 94.71875 166.007812 94.148438 168 93.660156 C 169.996094 93.171875 172.007812 92.761719 174.035156 92.441406 C 176.066406 92.117188 178.105469 91.878906 180.152344 91.722656 C 182.199219 91.570312 184.253906 91.5 186.304688 91.515625 C 188.359375 91.53125 190.410156 91.628906 192.457031 91.816406 C 194.5 92 196.535156 92.269531 198.558594 92.621094 C 200.582031 92.976562 202.589844 93.410156 204.578125 93.929688 C 206.566406 94.449219 208.527344 95.050781 210.464844 95.734375 C 212.402344 96.414062 214.308594 97.175781 216.183594 98.015625 C 218.058594 98.855469 219.898438 99.769531 221.695312 100.761719 C 223.496094 101.753906 225.25 102.816406 226.964844 103.953125 C 228.675781 105.089844 230.335938 106.296875 231.949219 107.570312 C 233.558594 108.84375 235.117188 110.183594 236.617188 111.585938 C 238.121094 112.988281 239.558594 114.453125 240.941406 115.972656 C 242.320312 117.496094 243.636719 119.074219 244.886719 120.703125 C 246.136719 122.335938 247.316406 124.015625 248.429688 125.746094 C 249.539062 127.472656 250.578125 129.246094 251.542969 131.0625 C 252.507812 132.875 253.394531 134.726562 254.207031 136.617188 C 255.019531 138.503906 255.753906 140.421875 256.40625 142.371094 C 257.058594 144.320312 257.632812 146.292969 258.121094 148.289062 C 258.222656 148.863281 258.410156 149.40625 258.679688 149.921875 C 258.949219 150.433594 259.292969 150.898438 259.703125 151.304688 C 260.117188 151.714844 260.582031 152.050781 261.097656 152.316406 C 261.613281 152.582031 262.160156 152.765625 262.730469 152.859375 C 263.859375 153.125 264.976562 153.433594 266.078125 153.789062 C 267.183594 154.148438 268.269531 154.550781 269.339844 154.996094 C 270.40625 155.445312 271.457031 155.9375 272.484375 156.472656 C 273.511719 157.007812 274.519531 157.585938 275.496094 158.203125 C 276.476562 158.824219 277.429688 159.484375 278.355469 160.183594 C 279.28125 160.882812 280.171875 161.621094 281.035156 162.394531 C 281.898438 163.167969 282.730469 163.980469 283.523438 164.824219 C 284.320312 165.667969 285.078125 166.542969 285.800781 167.449219 C 286.523438 168.359375 287.207031 169.292969 287.851562 170.257812 C 288.492188 171.222656 289.097656 172.214844 289.65625 173.230469 C 290.21875 174.246094 290.734375 175.28125 291.210938 176.339844 C 291.683594 177.398438 292.113281 178.476562 292.496094 179.570312 C 292.878906 180.664062 293.21875 181.773438 293.507812 182.898438 C 293.800781 184.019531 294.042969 185.152344 294.242188 186.296875 C 294.4375 187.441406 294.585938 188.589844 294.683594 189.746094 C 294.785156 190.902344 294.835938 192.058594 294.839844 193.21875 C 294.828125 196.933594 294.214844 200.542969 293.007812 204.054688 C 292.6875 205.710938 292.910156 207.289062 293.671875 208.792969 C 294.074219 209.59375 294.621094 210.28125 295.308594 210.855469 C 295.996094 211.429688 296.773438 211.84375 297.632812 212.09375 C 298.683594 212.378906 299.71875 212.707031 300.742188 213.082031 C 301.765625 213.460938 302.765625 213.882812 303.75 214.347656 C 304.734375 214.816406 305.695312 215.328125 306.632812 215.882812 C 307.574219 216.433594 308.484375 217.03125 309.367188 217.667969 C 310.253906 218.304688 311.105469 218.976562 311.929688 219.691406 C 312.753906 220.40625 313.542969 221.152344 314.296875 221.9375 C 315.054688 222.722656 315.773438 223.542969 316.453125 224.390625 C 317.136719 225.242188 317.777344 226.121094 318.382812 227.027344 C 318.984375 227.933594 319.542969 228.867188 320.0625 229.828125 C 320.582031 230.785156 321.054688 231.765625 321.484375 232.765625 C 321.917969 233.769531 322.300781 234.789062 322.636719 235.824219 C 322.976562 236.859375 323.265625 237.910156 323.511719 238.972656 C 323.753906 240.035156 323.949219 241.105469 324.097656 242.183594 C 324.242188 243.265625 324.339844 244.351562 324.390625 245.4375 C 324.4375 246.527344 324.4375 247.617188 324.390625 248.707031 C 324.339844 249.792969 324.242188 250.878906 324.09375 251.957031 C 323.949219 253.039062 323.753906 254.109375 323.507812 255.171875 C 323.265625 256.234375 322.972656 257.285156 322.636719 258.320312 C 322.296875 259.355469 321.914062 260.375 321.480469 261.375 C 321.050781 262.375 320.578125 263.355469 320.058594 264.316406 C 319.539062 265.273438 318.976562 266.207031 318.375 267.113281 C 317.773438 268.023438 317.128906 268.902344 316.449219 269.75 C 315.765625 270.601562 315.046875 271.417969 314.289062 272.203125 C 313.535156 272.988281 312.746094 273.734375 311.921875 274.449219 C 311.097656 275.160156 310.242188 275.835938 309.359375 276.472656 C 308.472656 277.109375 307.5625 277.703125 306.625 278.257812 C 305.6875 278.8125 304.726562 279.320312 303.742188 279.789062 C 302.757812 280.253906 301.753906 280.675781 300.730469 281.054688 C 299.710938 281.429688 298.671875 281.757812 297.621094 282.042969 C 296.570312 282.324219 295.507812 282.558594 294.433594 282.746094 C 293.359375 282.929688 292.28125 283.070312 291.195312 283.15625 C 290.109375 283.246094 289.023438 283.285156 287.933594 283.277344 Z M 287.933594 283.25 " fill-opacity="1" fill-rule="nonzero"/></g></svg>