<?xml version="1.0" encoding="UTF-8"?><svg xmlns="http://www.w3.org/2000/svg" xmlns:xlink="http://www.w3.org/1999/xlink" width="375" zoomAndPan="magnify" viewBox="0 0 375 374.999991" height="374.999991" preserveAspectRatio="xMidYMid meet" version="1.0"><defs><clipPath id="clip-0"><path d="M 90 107 L 331 107 L 331 346.429688 L 90 346.429688 Z M 90 107 " clip-rule="nonzero"/></clipPath><clipPath id="clip-1"><path d="M 72 138 L 317 138 L 317 346.429688 L 72 346.429688 Z M 72 138 " clip-rule="nonzero"/></clipPath><clipPath id="clip-2"><path d="M 86 174 L 116 174 L 116 346.429688 L 86 346.429688 Z M 86 174 " clip-rule="nonzero"/></clipPath><clipPath id="clip-3"><path d="M 77 195 L 134 195 L 134 346.429688 L 77 346.429688 Z M 77 195 " clip-rule="nonzero"/></clipPath><clipPath id="clip-4"><path d="M 148.585938 182 L 333.335938 182 L 333.335938 346.429688 L 148.585938 346.429688 Z M 148.585938 182 " clip-rule="nonzero"/></clipPath><clipPath id="clip-5"><path d="M 218 28.429688 L 316 28.429688 L 316 151 L 218 151 Z M 218 28.429688 " clip-rule="nonzero"/></clipPath><clipPath id="clip-6"><path d="M 310 338 L 326 338 L 326 346.429688 L 310 346.429688 Z M 310 338 " clip-rule="nonzero"/></clipPath><clipPath id="clip-7"><path d="M 226 338 L 324 338 L 324 346.429688 L 226 346.429688 Z M 226 338 " clip-rule="nonzero"/></clipPath></defs><g clip-path="url(#clip-0)"><path fill="rgb(100%, 100%, 100%)" d="M 309.21875 268.589844 C 308.632812 269.75 308.019531 270.925781 307.390625 272.121094 L 307.332031 272.21875 C 306.105469 274.21875 304.878906 276.152344 303.636719 278.03125 C 302.410156 279.890625 301.167969 281.695312 299.914062 283.453125 L 299.773438 283.640625 L 299.882812 284.515625 C 300.601562 290.394531 301.476562 295.851562 302.507812 300.878906 C 303.539062 305.902344 304.722656 310.484375 306.058594 314.625 C 307.394531 318.761719 308.886719 322.457031 310.53125 325.71875 C 312.179688 328.992188 313.984375 331.824219 315.945312 334.21875 L 316.324219 334.679688 L 316.777344 334.359375 C 319.347656 332.535156 321.808594 330.589844 324.152344 328.511719 C 326.429688 326.492188 328.589844 324.355469 330.617188 322.089844 L 330.726562 321.96875 L 330.761719 321.808594 C 331.011719 320.542969 330.363281 318.097656 329.175781 314.835938 C 328.015625 311.671875 326.332031 307.671875 324.460938 303.238281 C 322.035156 297.484375 319.304688 291.015625 316.992188 284.453125 C 314.695312 277.921875 312.816406 271.320312 312.078125 265.28125 L 311.835938 263.269531 L 310.945312 265.097656 C 310.382812 266.265625 309.804688 267.429688 309.21875 268.589844 Z M 151.105469 298.019531 C 147.363281 300.351562 143.292969 301.867188 139.082031 302.546875 C 134.894531 303.230469 130.554688 303.085938 126.238281 302.117188 C 122.007812 301.167969 117.796875 299.414062 113.773438 296.863281 C 113.246094 296.523438 112.707031 296.167969 112.167969 295.792969 C 111.65625 295.441406 111.148438 295.070312 110.648438 294.6875 C 107.203125 292.070312 104.136719 288.894531 101.382812 285.289062 C 98.640625 281.691406 96.203125 277.660156 94.003906 273.316406 L 90.4375 266.277344 L 95.019531 272.699219 C 101.472656 281.742188 108.917969 287.855469 116.589844 291.011719 C 121.796875 293.15625 127.117188 293.9375 132.292969 293.351562 C 137.46875 292.765625 142.507812 290.8125 147.164062 287.492188 C 153.996094 282.617188 160.011719 274.792969 164.445312 264.007812 L 166.3125 259.472656 L 165.585938 264.320312 C 165.175781 267.070312 164.804688 269.71875 164.457031 272.296875 C 164.089844 274.980469 163.757812 277.542969 163.425781 280.066406 L 162.554688 286.65625 L 162.480469 286.765625 C 162.246094 287.121094 161.988281 287.496094 161.710938 287.890625 C 161.472656 288.230469 161.214844 288.585938 160.929688 288.953125 C 158.058594 292.738281 154.730469 295.765625 151.105469 298.019531 Z M 183.691406 357.363281 C 188.507812 358.226562 193.699219 358.960938 199.167969 359.515625 C 203.546875 359.953125 208.101562 360.289062 212.78125 360.484375 C 217.289062 360.679688 221.910156 360.753906 226.601562 360.6875 L 226.902344 360.683594 L 227.082031 360.917969 C 238.308594 375.375 249.832031 387.097656 261.632812 396.085938 C 273.40625 405.042969 285.460938 411.289062 297.804688 414.820312 C 298.59375 414.867188 299.386719 414.902344 300.171875 414.960938 L 300.140625 416.152344 L 162.542969 416.152344 L 162.613281 415.492188 C 163.097656 410.953125 163.601562 406.269531 164.128906 401.445312 C 164.664062 396.53125 165.210938 391.558594 165.769531 386.542969 C 166.316406 381.550781 166.894531 376.40625 167.492188 371.113281 L 169.417969 354.082031 L 170.09375 354.277344 C 174.167969 355.425781 178.738281 356.46875 183.691406 357.363281 Z M 159.875 174.648438 C 161.699219 172.351562 163.125 169.292969 164.09375 165.695312 C 165.097656 161.960938 165.601562 157.652344 165.539062 153.003906 C 165.480469 148.542969 164.898438 143.769531 163.746094 138.894531 C 162.59375 134.015625 160.972656 129.488281 159.03125 125.476562 C 157.003906 121.296875 154.625 117.671875 152.050781 114.78125 C 149.574219 111.996094 146.925781 109.902344 144.257812 108.667969 C 141.644531 107.453125 139.011719 107.070312 136.496094 107.664062 C 134.355469 108.167969 132.449219 109.324219 130.816406 111.011719 C 129.164062 112.730469 127.785156 115 126.734375 117.703125 C 125.777344 120.152344 125.089844 122.953125 124.691406 126.023438 C 124.296875 129.03125 124.1875 132.296875 124.382812 135.738281 L 124.445312 136.785156 L 125.3125 136.195312 C 126.21875 135.578125 127.222656 135.09375 128.292969 134.765625 C 129.320312 134.445312 130.417969 134.277344 131.554688 134.277344 C 133.054688 134.277344 134.492188 134.578125 135.804688 135.125 C 137.167969 135.691406 138.402344 136.523438 139.433594 137.554688 C 140.460938 138.585938 141.296875 139.816406 141.863281 141.179688 C 142.40625 142.488281 142.707031 143.929688 142.707031 145.4375 L 142.707031 150.769531 L 147.589844 146.832031 C 147.800781 146.65625 148.066406 146.589844 148.316406 146.617188 C 148.570312 146.644531 148.8125 146.769531 148.984375 146.980469 C 149.058594 147.074219 149.109375 147.171875 149.148438 147.273438 C 149.183594 147.375 149.203125 147.492188 149.203125 147.605469 L 149.207031 179.164062 L 149.738281 179.226562 C 150.035156 179.261719 150.339844 179.285156 150.652344 179.296875 C 150.957031 179.308594 151.257812 179.308594 151.546875 179.292969 C 151.855469 179.273438 152.164062 179.246094 152.464844 179.203125 C 152.777344 179.15625 153.085938 179.097656 153.390625 179.027344 L 153.398438 179.027344 C 155.90625 178.429688 158.085938 176.902344 159.875 174.648438 Z M 140.492188 152.558594 L 131.554688 159.777344 L 122.386719 152.378906 L 122.386719 145.4375 C 122.386719 144.203125 122.636719 143.019531 123.089844 141.945312 C 123.554688 140.816406 124.234375 139.808594 125.082031 138.964844 C 125.929688 138.117188 126.9375 137.433594 128.058594 136.96875 C 129.136719 136.519531 130.320312 136.269531 131.554688 136.269531 C 132.789062 136.269531 133.96875 136.519531 135.050781 136.96875 C 136.171875 137.433594 137.179688 138.117188 138.023438 138.964844 C 138.871094 139.808594 139.554688 140.820312 140.019531 141.945312 C 140.46875 143.019531 140.714844 144.203125 140.714844 145.4375 L 140.714844 152.378906 Z M 142.707031 173.683594 L 142.707031 153.328125 L 147.214844 149.6875 L 147.214844 181.394531 L 142.117188 177.28125 L 142.234375 176.894531 C 142.390625 176.386719 142.511719 175.859375 142.589844 175.3125 C 142.667969 174.785156 142.707031 174.242188 142.707031 173.683594 Z M 140.714844 156.183594 L 140.714844 154.933594 C 137.976562 157.144531 134.984375 159.824219 132.1875 161.816406 C 132.011719 161.96875 131.785156 162.046875 131.5625 162.050781 C 131.339844 162.050781 131.117188 161.980469 130.929688 161.832031 L 122.386719 154.933594 L 122.386719 173.683594 C 122.386719 173.882812 122.394531 174.089844 122.410156 174.304688 C 122.425781 174.496094 122.445312 174.703125 122.472656 174.914062 L 122.617188 175.964844 C 125.273438 173.816406 128.199219 171.203125 130.914062 169.261719 C 131.09375 169.109375 131.320312 169.03125 131.542969 169.03125 C 131.765625 169.027344 131.988281 169.101562 132.175781 169.25 L 140.492188 175.964844 L 140.628906 174.914062 C 140.660156 174.703125 140.679688 174.496094 140.695312 174.304688 C 140.707031 174.089844 140.714844 173.882812 140.714844 173.683594 Z M 131.925781 171.605469 L 139.71875 177.894531 L 139.179688 178.757812 C 138.675781 179.503906 138.066406 180.183594 137.363281 180.757812 C 136.671875 181.332031 135.890625 181.804688 135.054688 182.152344 L 134.441406 182.410156 L 134.441406 191.917969 C 134.441406 192.308594 134.363281 192.679688 134.222656 193.027344 C 134.074219 193.375 133.863281 193.691406 133.597656 193.957031 C 133.328125 194.226562 133.007812 194.445312 132.660156 194.585938 C 132.3125 194.730469 131.9375 194.808594 131.554688 194.808594 C 131.164062 194.808594 130.792969 194.730469 130.445312 194.589844 C 130.097656 194.445312 129.78125 194.226562 129.515625 193.964844 C 129.246094 193.695312 129.027344 193.378906 128.886719 193.027344 C 128.742188 192.679688 128.664062 192.308594 128.664062 191.917969 L 128.664062 182.410156 L 128.050781 182.152344 C 127.210938 181.804688 126.433594 181.332031 125.742188 180.757812 C 125.042969 180.183594 124.429688 179.503906 123.925781 178.757812 L 123.390625 177.894531 L 131.554688 171.300781 Z M 305.984375 241.824219 C 312.554688 216.625 313.144531 190.113281 303.179688 170.859375 L 301.53125 167.683594 L 304.121094 170.152344 C 308.363281 174.207031 311.886719 178.578125 314.679688 183.257812 C 317.480469 187.945312 319.554688 192.941406 320.898438 198.242188 C 323.128906 207.039062 323.375 216.703125 321.636719 227.246094 C 319.902344 237.753906 316.195312 249.128906 310.515625 261.371094 C 309.773438 262.960938 308.996094 264.578125 308.179688 266.21875 C 307.367188 267.855469 306.523438 269.503906 305.652344 271.15625 L 305.628906 271.183594 C 300.425781 279.691406 295.136719 287 289.757812 293.109375 C 284.367188 299.226562 278.890625 304.148438 273.320312 307.871094 C 272.347656 308.519531 271.363281 309.140625 270.375 309.722656 C 269.378906 310.308594 268.390625 310.851562 267.417969 311.347656 L 261.632812 314.300781 L 266.78125 310.34375 C 283.105469 297.800781 298.460938 270.691406 305.984375 241.824219 " fill-opacity="1" fill-rule="evenodd"/></g><g clip-path="url(#clip-1)"><path fill="rgb(18.429565%, 18.03894%, 25.489807%)" d="M 109.644531 216.648438 C 107.648438 212.515625 105.65625 208.148438 103.601562 203.640625 L 101.902344 199.914062 L 99.832031 195.421875 L 99.238281 195.925781 C 97.816406 197.125 96.308594 198.226562 94.738281 199.234375 C 93.167969 200.25 91.539062 201.175781 89.875 202.019531 L 89.542969 202.183594 C 89.617188 221.324219 89.703125 240.46875 89.78125 259.609375 L 90.839844 258.230469 C 93.4375 254.851562 96.496094 251.433594 99.800781 247.75 L 99.820312 247.722656 C 104.542969 242.449219 109.777344 236.601562 114.878906 229.484375 L 115.738281 228.273438 L 115.546875 227.945312 C 113.566406 224.554688 111.613281 220.742188 109.644531 216.648438 Z M 87.570312 204.050781 L 87.796875 258.867188 L 86.621094 255.457031 C 83.433594 246.21875 80.78125 236.441406 78.199219 226.9375 L 78.199219 226.921875 C 77.328125 223.710938 76.457031 220.523438 75.675781 217.714844 C 74.828125 214.679688 73.972656 211.710938 73.101562 208.839844 L 72.914062 208.222656 L 73.542969 208.082031 C 74.800781 207.8125 76.023438 207.511719 77.207031 207.175781 C 78.398438 206.84375 79.558594 206.476562 80.691406 206.078125 C 81.738281 205.707031 82.765625 205.308594 83.765625 204.886719 C 84.769531 204.457031 85.746094 204.003906 86.703125 203.523438 L 87.566406 203.089844 Z M 225.957031 304.601562 C 228.851562 310.527344 233 314.867188 238.398438 317.613281 L 238.445312 317.636719 C 238.503906 317.675781 238.5625 317.707031 238.621094 317.730469 C 238.671875 317.746094 238.738281 317.765625 238.808594 317.777344 C 244.9375 318.863281 250.972656 318.71875 256.902344 317.34375 C 262.835938 315.96875 268.679688 313.359375 274.421875 309.519531 C 278.691406 306.667969 282.910156 303.128906 287.070312 298.90625 C 291.230469 294.679688 295.34375 289.765625 299.402344 284.164062 L 300.289062 282.929688 L 300.472656 284.441406 C 301.914062 296.199219 303.964844 306.203125 306.625 314.445312 C 309.28125 322.652344 312.539062 329.121094 316.402344 333.835938 L 316.808594 334.335938 L 316.28125 334.707031 C 313.28125 336.808594 310.132812 338.746094 306.863281 340.535156 C 303.488281 342.378906 299.980469 344.066406 296.363281 345.597656 C 288.929688 348.75 281.050781 351.253906 272.964844 353.195312 C 264.222656 355.289062 255.234375 356.726562 246.289062 357.609375 C 238.390625 358.390625 230.519531 358.738281 222.878906 358.726562 C 214.6875 358.710938 206.765625 358.285156 199.363281 357.535156 C 192.589844 356.847656 186.246094 355.890625 180.515625 354.730469 C 174.59375 353.53125 169.332031 352.117188 164.949219 350.5625 C 160.792969 349.089844 157.449219 347.535156 155.125 345.964844 C 152.75 344.367188 151.386719 342.714844 151.222656 341.085938 C 151.210938 340.949219 151.214844 340.804688 151.210938 340.667969 L 151.257812 340.550781 C 155.242188 331.125 157.945312 322.265625 159.945312 313.5625 C 161.949219 304.847656 163.253906 296.300781 164.441406 287.511719 L 164.480469 287.242188 C 164.785156 284.976562 165.070312 282.800781 165.359375 280.605469 L 165.398438 280.300781 C 166.363281 272.933594 167.359375 265.324219 168.726562 257.207031 C 170.164062 248.667969 171.707031 240.683594 173.363281 233.261719 C 175.023438 225.824219 176.792969 218.964844 178.660156 212.695312 C 180.523438 206.429688 182.496094 200.726562 184.574219 195.597656 C 186.402344 191.074219 188.320312 186.992188 190.320312 183.34375 C 183.761719 186.953125 179.300781 202.988281 177.363281 209.960938 C 177.113281 210.863281 176.902344 211.625 176.75 212.125 C 174.867188 218.457031 173.09375 225.34375 171.429688 232.789062 C 169.769531 240.242188 168.210938 248.269531 166.765625 256.878906 C 166.492188 258.507812 166.230469 260.121094 165.980469 261.714844 C 151.375 300.867188 116.929688 304.453125 94.535156 273.046875 C 94.734375 273.867188 94.929688 274.679688 95.132812 275.476562 C 93.199219 271.898438 91.453125 268.082031 89.839844 264.101562 L 89.800781 264 L 89.796875 263.09375 L 89.894531 262.949219 C 91.382812 260.699219 93.128906 258.460938 95.050781 256.164062 C 96.941406 253.914062 99.058594 251.550781 101.28125 249.066406 L 101.300781 249.046875 C 106.035156 243.757812 111.28125 237.894531 116.347656 230.855469 L 116.863281 230.144531 L 117.332031 230.886719 C 120.332031 235.589844 123.410156 239.246094 126.71875 241.386719 C 129.957031 243.484375 133.429688 244.125 137.300781 242.863281 C 139.488281 242.144531 141.515625 240.804688 143.488281 238.835938 C 145.488281 236.839844 147.429688 234.195312 149.398438 230.898438 C 151.316406 227.707031 153.273438 223.890625 155.363281 219.449219 C 157.453125 215.015625 159.683594 209.9375 162.152344 204.21875 C 163.65625 200.722656 165.183594 197.191406 166.769531 193.648438 C 168.3125 190.195312 169.867188 186.847656 171.417969 183.738281 C 172.976562 180.621094 174.542969 177.714844 176.113281 175.152344 C 177.695312 172.570312 179.292969 170.3125 180.902344 168.496094 C 184.433594 164.519531 187.847656 162.015625 191.121094 160.269531 C 194.390625 158.53125 197.515625 157.558594 200.484375 156.625 C 203.726562 155.617188 206.796875 154.65625 209.667969 152.933594 C 212.527344 151.222656 215.226562 148.734375 217.773438 144.644531 L 218.035156 144.222656 L 218.496094 144.402344 C 221.457031 145.574219 224.320312 146.402344 227.082031 146.890625 C 229.835938 147.371094 232.488281 147.519531 235.042969 147.328125 C 237.265625 147.164062 239.417969 146.742188 241.484375 146.0625 C 243.558594 145.386719 245.550781 144.453125 247.46875 143.265625 L 248.46875 142.644531 L 248.234375 145.488281 L 248.070312 147.1875 C 247.199219 155.722656 245.558594 165.078125 243.144531 175.246094 C 240.730469 185.40625 237.539062 196.394531 233.574219 208.222656 L 233.546875 208.304688 C 228.988281 223.746094 225.664062 237.605469 223.574219 249.871094 C 221.488281 262.117188 220.632812 272.773438 221.007812 281.832031 C 221.386719 291.035156 223.035156 298.625 225.957031 304.601562 Z M 240.042969 317.613281 C 253.894531 318.308594 262.929688 316.042969 267.144531 310.816406 C 297.917969 287.171875 325.242188 212.179688 303.710938 170.585938 C 297.183594 163.691406 288.753906 157.523438 278.421875 152.085938 C 277.699219 143.027344 277.332031 138.496094 277.332031 138.496094 C 270.648438 148.242188 260.707031 154.054688 247.5 155.945312 C 244.609375 174.039062 238.984375 196.441406 230.628906 223.152344 C 216.78125 277.058594 219.917969 308.546875 240.042969 317.613281 " fill-opacity="1" fill-rule="evenodd"/></g><path fill="rgb(100%, 100%, 100%)" d="M 237.847656 69.128906 C 240.730469 67.898438 243.894531 67.21875 247.207031 67.21875 C 247.894531 67.21875 248.566406 67.246094 249.234375 67.296875 C 249.898438 67.351562 250.554688 67.433594 251.210938 67.539062 C 254.164062 68.027344 256.898438 69.046875 259.339844 70.484375 C 261.886719 71.984375 264.117188 73.941406 265.953125 76.226562 C 267.292969 77.886719 268.421875 79.726562 269.3125 81.6875 C 270.195312 83.628906 270.84375 85.699219 271.234375 87.851562 L 271.925781 91.640625 L 270.121094 88.234375 C 269.097656 86.300781 267.59375 84.097656 265.75 82.695312 C 264.46875 81.726562 263.023438 81.152344 261.476562 81.363281 C 261.308594 81.621094 261.3125 82.496094 261.492188 83.980469 C 261.714844 85.835938 262.273438 88.503906 263.15625 91.972656 L 263.960938 95.132812 L 262.085938 92.464844 C 260.425781 90.089844 258.0625 88.0625 255.578125 86.691406 C 253.230469 85.394531 250.796875 84.691406 248.769531 84.863281 C 248.371094 85.753906 249.382812 87.132812 250.894531 89.175781 C 252.71875 91.644531 255.191406 95 256.800781 99.804688 L 257.855469 102.957031 L 255.769531 100.363281 C 254.0625 98.246094 251.734375 96.449219 249.347656 95.394531 C 247.308594 94.5 245.246094 94.144531 243.546875 94.621094 C 243.414062 96.109375 245.320312 98.019531 247.542969 100.25 C 250.386719 103.101562 253.71875 106.4375 254.363281 110.539062 L 254.90625 113.957031 L 253.253906 110.914062 C 252.222656 109.019531 250.863281 107.691406 249.457031 106.742188 C 248.03125 105.789062 246.546875 105.210938 245.289062 104.816406 L 245.273438 104.8125 C 245.160156 104.777344 245.039062 104.753906 244.917969 104.761719 C 244.800781 104.765625 244.683594 104.792969 244.570312 104.839844 C 244.316406 104.945312 244.128906 105.148438 244.035156 105.382812 C 243.9375 105.621094 243.933594 105.890625 244.042969 106.144531 C 244.734375 107.78125 245.351562 109.484375 245.886719 111.261719 C 246.425781 113.046875 246.890625 114.910156 247.28125 116.855469 L 247.433594 117.628906 L 246.648438 117.566406 C 243.613281 117.324219 240.667969 116.519531 237.9375 115.261719 C 235.148438 113.976562 232.582031 112.207031 230.386719 110.070312 C 228 107.742188 226.050781 104.976562 224.710938 101.90625 C 223.445312 98.984375 222.730469 95.792969 222.730469 92.453125 C 222.730469 89.035156 223.386719 85.773438 224.585938 82.796875 C 225.828125 79.707031 227.648438 76.921875 229.90625 74.597656 C 232.160156 72.277344 234.855469 70.40625 237.847656 69.128906 Z M 231.386719 52.769531 C 228.074219 48.855469 224.019531 45.828125 219.5 43.628906 C 215.40625 41.632812 210.941406 40.324219 206.304688 39.644531 C 201.460938 38.933594 196.425781 38.910156 191.453125 39.515625 L 188.972656 39.820312 L 191.050781 38.425781 C 192.1875 37.664062 193.34375 36.988281 194.496094 36.398438 C 195.679688 35.792969 196.882812 35.273438 198.101562 34.828125 C 201.8125 33.480469 205.625 32.886719 209.4375 32.941406 C 213.472656 32.996094 217.503906 33.78125 221.410156 35.152344 C 225.191406 36.484375 228.855469 38.363281 232.300781 40.675781 C 235.832031 43.050781 239.136719 45.882812 242.101562 49.046875 C 244.308594 51.402344 246.320312 53.941406 248.085938 56.597656 C 249.835938 59.226562 251.351562 61.988281 252.589844 64.820312 L 253.035156 65.835938 L 251.519531 65.578125 C 250.824219 65.464844 250.105469 65.375 249.375 65.3125 C 248.660156 65.253906 247.9375 65.226562 247.207031 65.226562 C 245.824219 65.226562 244.476562 65.332031 243.167969 65.535156 C 241.832031 65.75 240.523438 66.0625 239.25 66.476562 L 238.671875 66.664062 L 238.496094 66.078125 C 236.914062 60.832031 234.46875 56.410156 231.386719 52.769531 " fill-opacity="1" fill-rule="evenodd"/><path fill="rgb(18.429565%, 18.03894%, 25.489807%)" d="M 250.4375 56.582031 C 252.398438 59.683594 254.054688 62.9375 255.328125 66.273438 L 255.425781 66.539062 L 255.691406 66.625 C 258.023438 67.429688 260.195312 68.550781 262.152344 69.9375 C 264.164062 71.359375 265.960938 73.0625 267.503906 74.980469 C 269.46875 77.425781 271.019531 80.21875 272.070312 83.226562 C 273.101562 86.167969 273.652344 89.324219 273.652344 92.566406 C 273.652344 93.273438 273.625 93.984375 273.574219 94.695312 C 273.519531 95.40625 273.433594 96.125 273.328125 96.847656 L 273.304688 96.972656 L 273.34375 97.097656 C 273.738281 98.492188 274.085938 99.84375 274.394531 101.101562 C 274.703125 102.355469 274.972656 103.523438 275.207031 104.546875 C 276.230469 109.015625 277.042969 113.660156 277.671875 118.371094 C 278.335938 123.40625 278.792969 128.53125 279.0625 133.617188 C 279.183594 135.835938 279.265625 138.027344 279.316406 140.191406 C 279.367188 142.425781 279.386719 144.644531 279.371094 146.832031 L 279.367188 147.507812 L 280.039062 147.425781 C 283.710938 146.96875 288.09375 145.703125 292.449219 143.832031 C 296.535156 142.070312 300.605469 139.769531 304.046875 137.089844 C 305.445312 136 306.738281 134.851562 307.871094 133.65625 C 308.960938 132.507812 309.914062 131.316406 310.691406 130.089844 C 311.480469 128.847656 312.089844 127.566406 312.484375 126.261719 C 312.851562 125.011719 313.019531 123.742188 312.953125 122.457031 C 312.886719 121.289062 312.621094 120.097656 312.128906 118.898438 C 311.664062 117.757812 310.996094 116.609375 310.101562 115.460938 L 309.921875 115.226562 L 309.914062 115.226562 C 308.867188 113.945312 307.617188 112.949219 306.269531 112.089844 C 304.863281 111.207031 303.355469 110.480469 301.835938 109.753906 C 299.578125 108.671875 297.304688 107.574219 295.28125 105.984375 C 293.285156 104.414062 291.515625 102.34375 290.226562 99.277344 C 288.253906 94.589844 289.078125 90.367188 289.894531 86.222656 L 289.894531 86.210938 C 290.738281 81.914062 291.566406 77.699219 288.820312 73.355469 C 287.824219 71.777344 286.507812 70.621094 285.003906 69.667969 C 283.539062 68.738281 281.894531 68 280.207031 67.242188 C 278.769531 66.601562 277.304688 65.941406 275.878906 65.152344 C 274.460938 64.367188 273.054688 63.441406 271.71875 62.242188 C 267.277344 58.257812 265.285156 54.15625 263.332031 50.132812 C 262.003906 47.394531 260.691406 44.691406 258.554688 42.089844 C 256.421875 39.480469 253.476562 37.007812 248.90625 34.757812 C 246.667969 33.652344 244.246094 32.742188 241.679688 32.105469 C 239.320312 31.523438 236.832031 31.175781 234.246094 31.132812 C 232.503906 31.109375 230.726562 31.21875 228.914062 31.492188 C 227.175781 31.746094 225.410156 32.148438 223.621094 32.71875 L 222.015625 33.226562 L 223.582031 33.84375 C 227.234375 35.273438 230.765625 37.195312 234.085938 39.492188 C 237.492188 41.863281 240.679688 44.628906 243.550781 47.691406 C 246.117188 50.433594 248.4375 53.425781 250.4375 56.582031 Z M 187.394531 76.890625 C 179.789062 77.675781 172.28125 75.800781 164.867188 71.269531 C 166.320312 72.722656 167.90625 74.019531 169.605469 75.136719 C 172.371094 76.949219 175.453125 78.273438 178.816406 78.964844 L 179.382812 79.082031 L 179.285156 79.648438 C 178.949219 81.660156 178.585938 83.683594 178.199219 85.71875 C 177.808594 87.769531 177.394531 89.8125 176.960938 91.847656 C 176.46875 94.160156 175.933594 96.519531 175.363281 98.90625 C 174.792969 101.28125 174.195312 103.636719 173.578125 105.972656 L 173.570312 106 C 173.398438 106.546875 173.488281 107.046875 173.835938 107.496094 C 174.246094 108.027344 174.992188 108.507812 176.078125 108.949219 C 176.808594 109.246094 177.742188 109.550781 178.878906 109.859375 C 180.042969 110.171875 181.390625 110.480469 182.925781 110.792969 L 183.015625 110.8125 L 183.097656 110.855469 C 183.738281 111.214844 184.316406 112.09375 184.890625 113.296875 C 185.425781 114.421875 185.96875 115.839844 186.554688 117.375 C 187.730469 120.457031 189.066406 123.957031 191.078125 126.835938 C 193.050781 129.660156 195.695312 131.921875 199.523438 132.636719 C 201.535156 133.011719 203.679688 132.847656 205.957031 132.144531 C 208.265625 131.425781 210.710938 130.152344 213.285156 128.328125 L 213.945312 127.851562 L 215.292969 126.824219 L 215.542969 127.648438 C 215.898438 128.824219 216.214844 129.996094 216.492188 131.160156 C 216.761719 132.3125 216.996094 133.472656 217.195312 134.628906 C 217.390625 135.769531 217.542969 136.90625 217.65625 138.039062 C 217.765625 139.160156 217.839844 140.28125 217.878906 141.398438 L 217.890625 141.890625 L 217.40625 142 C 217.269531 142.023438 217.136719 142.082031 217.023438 142.167969 C 216.917969 142.246094 216.820312 142.351562 216.75 142.480469 C 211.878906 150.984375 206.222656 152.75 199.894531 154.726562 L 199.808594 154.757812 C 198.011719 155.316406 196.164062 155.898438 194.277344 156.632812 C 192.367188 157.382812 190.40625 158.292969 188.394531 159.519531 L 188.238281 159.613281 L 188.058594 159.605469 C 183.882812 159.433594 180.101562 158.757812 176.714844 157.574219 C 173.3125 156.386719 170.3125 154.691406 167.71875 152.488281 L 167.515625 152.316406 L 167.507812 152.046875 C 167.445312 149.855469 167.261719 147.59375 166.957031 145.289062 C 166.65625 143.050781 166.234375 140.757812 165.683594 138.4375 C 164.488281 133.390625 162.804688 128.699219 160.777344 124.53125 C 158.675781 120.210938 156.207031 116.457031 153.535156 113.457031 C 151.390625 111.042969 149.109375 109.109375 146.773438 107.738281 C 144.515625 106.417969 142.203125 105.621094 139.910156 105.4375 L 139.496094 105.40625 L 139.378906 104.996094 C 137.097656 96.648438 140.53125 93.191406 144.171875 89.53125 C 145.425781 88.269531 146.699219 86.988281 147.804688 85.511719 C 148.898438 84.058594 149.839844 82.394531 150.457031 80.339844 C 150.75 79.363281 150.984375 78.34375 151.195312 77.296875 C 151.410156 76.222656 151.589844 75.144531 151.773438 74.046875 C 152.097656 72.121094 152.433594 70.109375 152.949219 68.082031 C 153.472656 66.019531 154.1875 63.921875 155.265625 61.835938 C 156.339844 59.75 157.851562 57.613281 159.867188 55.539062 C 161.695312 53.65625 163.929688 51.816406 166.617188 50.105469 C 169.125 48.511719 172.023438 47.027344 175.347656 45.710938 C 178.433594 44.484375 181.894531 43.414062 185.765625 42.523438 C 191.46875 41.21875 197.386719 40.769531 203.105469 41.269531 C 208.578125 41.746094 213.871094 43.105469 218.628906 45.421875 C 222.929688 47.515625 226.792969 50.40625 229.949219 54.164062 C 232.875 57.652344 235.183594 61.882812 236.664062 66.90625 L 236.8125 67.402344 L 236.34375 67.617188 C 234.875 68.296875 233.480469 69.113281 232.171875 70.042969 C 230.847656 70.984375 229.613281 72.046875 228.480469 73.214844 C 226.769531 74.972656 225.296875 76.972656 224.101562 79.15625 C 222.9375 81.296875 222.039062 83.621094 221.46875 86.078125 L 221.136719 87.507812 L 220.375 86.246094 C 218.742188 83.53125 217.5625 80.316406 216.832031 76.617188 C 216.109375 72.9375 215.832031 68.765625 216 64.101562 L 216 64.070312 C 216.015625 63.933594 216 63.796875 215.957031 63.667969 C 215.917969 63.542969 215.847656 63.421875 215.75 63.316406 C 215.566406 63.109375 215.316406 63 215.0625 62.984375 C 214.808594 62.972656 214.550781 63.058594 214.34375 63.242188 C 205.265625 71.421875 196.277344 75.96875 187.394531 76.890625 " fill-opacity="1" fill-rule="evenodd"/><path fill="rgb(100%, 72.158813%, 72.158813%)" d="M 278.398438 136.539062 C 275.03125 100.789062 269.207031 81.609375 261.214844 80.800781 C 260.238281 81.425781 260.921875 86.082031 263.273438 94.765625 C 259.699219 89.214844 254.746094 85.730469 248.414062 84.304688 C 246.523438 86.789062 253.089844 90.597656 256.238281 99.988281 C 250.84375 96.125 246.4375 94.183594 243.03125 94.160156 C 241.890625 98.097656 252.605469 103.203125 253.777344 110.632812 C 250.953125 107.816406 248.191406 106.5625 245.492188 106.871094 C 250.625 121.445312 251.292969 137.804688 247.5 155.945312 C 263.117188 153.0625 273.417969 146.597656 278.398438 136.539062 Z M 199.671875 91.402344 C 197.710938 91.832031 195.804688 92.699219 194.332031 93.832031 C 194.316406 92.628906 195.074219 91.558594 196.191406 90.765625 C 196.929688 90.242188 197.824219 89.835938 198.761719 89.589844 C 199.699219 89.34375 200.671875 89.253906 201.578125 89.363281 C 202.960938 89.523438 204.175781 90.15625 204.796875 91.402344 C 203.210938 90.980469 201.417969 91.023438 199.671875 91.402344 Z M 207.316406 109.367188 C 206.386719 110.183594 205.40625 110.847656 204.382812 111.359375 C 203.351562 111.863281 202.265625 112.222656 201.125 112.433594 C 199.980469 112.640625 198.785156 112.699219 197.539062 112.613281 C 197.265625 112.59375 197.007812 112.6875 196.816406 112.855469 C 196.625 113.019531 196.496094 113.261719 196.476562 113.53125 C 196.46875 113.671875 196.488281 113.804688 196.523438 113.921875 C 196.566406 114.046875 196.632812 114.164062 196.71875 114.257812 L 196.730469 114.269531 C 197.972656 115.75 199.167969 116.929688 200.300781 117.820312 C 201.46875 118.746094 202.574219 119.371094 203.601562 119.722656 C 204.363281 119.988281 205.085938 120.109375 205.761719 120.089844 C 206.449219 120.070312 207.09375 119.917969 207.695312 119.640625 C 208.269531 119.367188 208.792969 118.984375 209.257812 118.496094 C 209.730469 117.992188 210.144531 117.378906 210.496094 116.660156 C 211.050781 115.527344 211.441406 114.117188 211.660156 112.484375 C 211.871094 110.855469 211.910156 109 211.757812 106.957031 C 211.738281 106.679688 211.605469 106.441406 211.417969 106.277344 C 211.226562 106.109375 210.964844 106.015625 210.691406 106.035156 C 210.539062 106.046875 210.394531 106.09375 210.265625 106.167969 C 210.136719 106.242188 210.023438 106.347656 209.941406 106.476562 L 209.925781 106.492188 C 209.109375 107.601562 208.234375 108.5625 207.316406 109.367188 Z M 186.261719 111.648438 C 187.015625 113.003906 187.6875 114.761719 188.410156 116.667969 C 189.472656 119.4375 190.675781 122.589844 192.425781 125.222656 C 194.21875 127.925781 196.570312 130.0625 199.882812 130.683594 C 201.65625 131.011719 203.570312 130.839844 205.632812 130.164062 C 207.65625 129.496094 209.824219 128.347656 212.136719 126.707031 C 214.472656 125.050781 216.941406 122.902344 219.542969 120.261719 C 222.140625 117.628906 224.867188 114.511719 227.722656 110.90625 L 228.035156 110.515625 L 227.699219 110.136719 C 225.507812 107.699219 223.730469 104.890625 222.523438 101.824219 C 221.375 98.90625 220.738281 95.75 220.738281 92.453125 C 220.738281 92.09375 220.742188 91.769531 220.753906 91.488281 C 220.761719 91.1875 220.78125 90.867188 220.800781 90.527344 L 220.816406 90.296875 L 220.667969 90.113281 C 218.503906 87.460938 216.859375 84.25 215.746094 80.496094 C 214.625 76.714844 214.03125 72.378906 213.972656 67.488281 L 213.957031 66.242188 L 212.996094 67.035156 C 207.339844 71.714844 201.972656 74.929688 196.949219 76.917969 C 191.511719 79.078125 186.46875 79.804688 181.894531 79.410156 L 181.347656 79.363281 L 181.253906 79.90625 C 180.910156 81.976562 180.539062 84.039062 180.152344 86.09375 C 179.761719 88.132812 179.347656 90.191406 178.90625 92.261719 C 178.402344 94.617188 177.933594 96.722656 177.433594 98.847656 C 176.925781 100.988281 176.394531 103.101562 175.769531 105.453125 C 175.621094 105.902344 175.558594 106.152344 175.820312 106.507812 C 176 106.753906 176.28125 106.886719 176.824219 107.105469 C 177.539062 107.394531 178.460938 107.691406 179.59375 107.992188 C 180.695312 108.285156 182.007812 108.585938 183.535156 108.890625 L 183.65625 108.917969 L 183.730469 108.949219 C 184.742188 109.386719 185.542969 110.351562 186.261719 111.648438 Z M 209.417969 113.722656 C 209.234375 114.5 209 115.191406 208.707031 115.785156 C 208.46875 116.273438 208.199219 116.695312 207.894531 117.035156 C 207.578125 117.390625 207.230469 117.664062 206.855469 117.84375 C 206.480469 118.015625 206.066406 118.105469 205.609375 118.097656 C 205.183594 118.09375 204.730469 118.007812 204.246094 117.84375 C 203.691406 117.652344 203.105469 117.359375 202.484375 116.957031 C 201.894531 116.570312 201.28125 116.089844 200.640625 115.511719 L 199.707031 114.660156 L 200.953125 114.476562 C 201.714844 114.367188 202.449219 114.199219 203.164062 113.976562 C 203.882812 113.753906 204.582031 113.472656 205.257812 113.140625 C 205.882812 112.832031 206.492188 112.472656 207.085938 112.066406 C 207.671875 111.667969 208.246094 111.210938 208.800781 110.710938 L 209.910156 109.707031 L 209.796875 111.195312 C 209.726562 112.117188 209.597656 112.964844 209.417969 113.722656 Z M 234.003906 122.695312 C 234.621094 120.949219 235.105469 119.074219 235.402344 117.105469 L 235.527344 116.296875 L 236.261719 116.667969 C 237.980469 117.527344 239.792969 118.222656 241.671875 118.71875 C 243.5 119.210938 245.382812 119.511719 247.289062 119.605469 L 247.777344 119.632812 L 247.851562 120.117188 C 248.296875 123.050781 248.585938 126.164062 248.714844 129.453125 C 248.84375 132.730469 248.820312 136.171875 248.636719 139.785156 L 248.625 140.066406 L 248.398438 140.234375 C 246.351562 141.753906 244.199219 142.941406 241.949219 143.792969 C 239.691406 144.644531 237.34375 145.164062 234.890625 145.347656 C 232.628906 145.515625 230.273438 145.402344 227.828125 144.996094 C 225.394531 144.601562 222.871094 143.917969 220.265625 142.960938 L 219.882812 142.816406 L 219.878906 142.402344 C 219.871094 141.171875 219.8125 139.917969 219.707031 138.640625 C 219.597656 137.363281 219.441406 136.097656 219.242188 134.84375 L 219.085938 133.847656 L 220.03125 134.183594 C 220.417969 134.320312 220.808594 134.421875 221.203125 134.480469 C 223.609375 134.855469 226.109375 133.804688 228.347656 131.753906 C 230.648438 129.640625 232.65625 126.480469 234.003906 122.695312 Z M 94.675781 196.898438 C 96.042969 195.957031 97.367188 194.941406 98.617188 193.832031 L 98.953125 193.535156 L 97.28125 189.992188 C 94.691406 191.945312 92.101562 193.894531 89.519531 195.851562 L 89.535156 199.960938 L 90.410156 199.488281 C 91.871094 198.699219 93.300781 197.835938 94.675781 196.898438 Z M 57.777344 140.429688 C 73 146.640625 86.269531 162.730469 97.585938 188.699219 C 97.585938 188.699219 94.472656 190.867188 88.246094 195.203125 C 88.246094 195.203125 88.273438 197.3125 88.320312 201.53125 C 81.859375 204.753906 76.382812 206.453125 71.886719 206.636719 C 64.664062 185.816406 56.078125 171.753906 46.132812 164.464844 C 45.230469 162.453125 47.667969 161.265625 52.726562 163.964844 C 47.671875 157.667969 41.597656 152.429688 42.710938 151.125 C 45.621094 151.832031 50.09375 155.027344 56.125 160.714844 C 55.269531 153.082031 45.578125 147.027344 46.429688 144.117188 C 49.289062 144.230469 54.339844 147.679688 61.578125 154.472656 C 61.578125 154.472656 61.878906 153.003906 62.472656 150.0625 C 58.105469 144.667969 56.542969 141.457031 57.777344 140.429688 " fill-opacity="1" fill-rule="evenodd"/><path fill="rgb(6.269836%, 5.879211%, 5.099487%)" d="M 71.90625 159.824219 C 70.070312 157.59375 68.324219 155.808594 66.660156 154.464844 C 65.558594 153.578125 64.503906 152.894531 63.492188 152.410156 C 63.183594 155.175781 65.832031 162.386719 71.429688 174.046875 C 62.222656 168.484375 58.449219 151.714844 61.398438 149.417969 C 61.789062 148.890625 62.488281 148.640625 63.152344 148.851562 C 66.617188 149.941406 70.398438 152.921875 71.90625 159.824219 " fill-opacity="1" fill-rule="evenodd"/><path fill="rgb(6.269836%, 5.879211%, 5.099487%)" d="M 105.949219 202.570312 C 116.328125 225.332031 124.929688 244.183594 136.496094 240.398438 C 140.25 239.171875 143.59375 235.574219 147.1875 229.574219 C 150.921875 223.339844 154.886719 214.542969 159.773438 203.195312 C 162.808594 196.15625 165.898438 189.023438 169.109375 182.585938 C 172.320312 176.164062 175.605469 170.582031 178.972656 166.789062 C 186.515625 158.28125 193.429688 156.121094 199.71875 154.160156 C 205.925781 152.21875 211.476562 150.484375 216.230469 142.179688 C 216.65625 141.4375 217.582031 141.167969 218.335938 141.550781 C 224.292969 144.0625 229.800781 145.128906 234.847656 144.75 C 239.863281 144.375 244.449219 142.566406 248.605469 139.324219 L 250.558594 141.828125 C 245.886719 145.472656 240.730469 147.503906 235.085938 147.925781 C 229.878906 148.316406 224.273438 147.324219 218.28125 144.960938 C 213.078125 153.320312 207.203125 155.15625 200.664062 157.199219 C 194.777344 159.039062 188.296875 161.0625 181.351562 168.890625 C 178.183594 172.460938 175.042969 177.8125 171.949219 184.007812 C 168.859375 190.1875 165.753906 197.367188 162.703125 204.453125 C 157.773438 215.882812 153.765625 224.773438 149.914062 231.207031 C 145.914062 237.878906 142.042969 241.933594 137.484375 243.425781 C 123.21875 248.097656 114.085938 228.066406 103.0625 203.886719 C 92.03125 179.699219 79.027344 151.1875 57.777344 140.429688 C 85.390625 147.0625 103.328125 196.828125 105.949219 202.570312 " fill-opacity="1" fill-rule="evenodd"/><path fill="rgb(6.269836%, 5.879211%, 5.099487%)" d="M 64.515625 157.785156 L 61.984375 159.773438 C 60.261719 156.605469 58.089844 153.703125 55.460938 151.074219 C 52.828125 148.441406 49.734375 146.070312 46.183594 143.96875 C 52.304688 141.921875 62.378906 153.859375 64.515625 157.785156 " fill-opacity="1" fill-rule="evenodd"/><path fill="rgb(6.269836%, 5.879211%, 5.099487%)" d="M 56.625 164.992188 C 55.347656 162.480469 53.554688 160.074219 51.261719 157.777344 C 48.925781 155.445312 46.074219 153.222656 42.710938 151.125 C 46.941406 149.425781 59.773438 159.167969 56.625 164.992188 " fill-opacity="1" fill-rule="evenodd"/><path fill="rgb(6.269836%, 5.879211%, 5.099487%)" d="M 57.820312 174.0625 C 60.734375 178.351562 63.425781 183 65.898438 188 C 71.117188 198.554688 74.859375 212.355469 78.773438 226.765625 C 85.84375 252.808594 93.464844 280.890625 111.011719 294.214844 C 111.980469 294.957031 113.015625 295.671875 114.09375 296.355469 C 122.105469 301.441406 130.835938 303.285156 138.992188 301.960938 C 147.128906 300.640625 154.714844 296.160156 160.457031 288.589844 C 161.132812 287.707031 161.808594 286.734375 162.476562 285.675781 L 165.167969 287.382812 C 164.5 288.433594 163.769531 289.480469 162.988281 290.511719 C 156.722656 298.761719 148.417969 303.652344 139.488281 305.101562 C 130.574219 306.546875 121.070312 304.558594 112.386719 299.046875 C 111.316406 298.367188 110.214844 297.597656 109.089844 296.746094 C 90.667969 282.75 82.898438 254.136719 75.699219 227.601562 C 71.824219 213.324219 68.109375 199.65625 63.046875 189.40625 C 60.628906 184.515625 58.011719 179.992188 55.195312 175.84375 C 52.386719 171.699219 49.363281 167.90625 46.132812 164.464844 C 49.191406 164.347656 54.75 169.53125 57.820312 174.0625 " fill-opacity="1" fill-rule="evenodd"/><g clip-path="url(#clip-2)"><path fill="rgb(6.269836%, 5.879211%, 5.099487%)" d="M 115.855469 176.703125 L 90.117188 196.148438 C 90.664062 328.527344 90.960938 404.648438 91.007812 415.554688 L 87.828125 415.554688 C 87.789062 404.578125 87.488281 328.222656 86.9375 195.46875 C 86.902344 194.949219 87.121094 194.421875 87.566406 194.089844 L 113.9375 174.15625 L 115.855469 176.703125 " fill-opacity="1" fill-rule="evenodd"/></g><path fill="rgb(6.269836%, 5.879211%, 5.099487%)" d="M 137.601562 139.386719 C 136.054688 137.832031 133.910156 136.867188 131.554688 136.867188 C 129.199219 136.867188 127.058594 137.835938 125.503906 139.386719 C 123.949219 140.9375 122.984375 143.082031 122.984375 145.4375 L 122.984375 173.683594 C 122.984375 175.441406 123.515625 177.070312 124.421875 178.425781 C 125.359375 179.828125 126.703125 180.945312 128.277344 181.601562 L 129.261719 182.011719 L 129.261719 191.917969 C 129.261719 192.554688 129.515625 193.125 129.929688 193.539062 L 129.9375 193.542969 C 130.347656 193.957031 130.917969 194.210938 131.554688 194.210938 C 132.1875 194.210938 132.757812 193.957031 133.167969 193.542969 L 133.175781 193.539062 C 133.585938 193.125 133.84375 192.554688 133.84375 191.917969 L 133.84375 182.011719 L 134.824219 181.601562 C 136.402344 180.945312 137.746094 179.828125 138.683594 178.425781 C 139.589844 177.070312 140.117188 175.441406 140.117188 173.683594 L 140.117188 145.4375 C 140.117188 143.082031 139.152344 140.9375 137.601562 139.386719 Z M 131.554688 133.679688 C 134.78125 133.679688 137.71875 135.003906 139.851562 137.128906 C 141.984375 139.261719 143.304688 142.203125 143.304688 145.4375 L 143.304688 173.683594 C 143.304688 176.082031 142.574219 178.320312 141.324219 180.191406 C 140.238281 181.816406 138.761719 183.15625 137.03125 184.078125 L 137.03125 191.917969 C 137.03125 193.421875 136.417969 194.789062 135.421875 195.785156 L 135.414062 195.789062 C 134.421875 196.785156 133.050781 197.398438 131.554688 197.398438 C 130.050781 197.398438 128.683594 196.785156 127.6875 195.789062 L 127.683594 195.785156 C 126.691406 194.789062 126.074219 193.421875 126.074219 191.917969 L 126.074219 184.078125 C 124.34375 183.15625 122.863281 181.816406 121.78125 180.191406 C 120.53125 178.320312 119.800781 176.082031 119.800781 173.683594 L 119.800781 145.4375 C 119.800781 142.203125 121.121094 139.261719 123.25 137.128906 C 125.378906 135.003906 128.316406 133.679688 131.554688 133.679688 " fill-opacity="1" fill-rule="evenodd"/><path fill="rgb(6.269836%, 5.879211%, 5.099487%)" d="M 146.617188 150.933594 L 132.570312 162.277344 C 132.003906 162.753906 131.15625 162.777344 130.554688 162.292969 L 116.488281 150.933594 L 116.488281 180.144531 L 130.535156 168.804688 C 131.101562 168.328125 131.949219 168.300781 132.550781 168.785156 L 146.617188 180.144531 Z M 131.554688 159.011719 L 147.214844 146.363281 C 147.902344 145.816406 148.902344 145.925781 149.449219 146.605469 C 149.683594 146.898438 149.796875 147.253906 149.796875 147.605469 L 149.804688 183.476562 C 149.804688 184.355469 149.089844 185.070312 148.210938 185.070312 C 147.789062 185.070312 147.410156 184.90625 147.125 184.640625 L 131.554688 172.066406 L 115.890625 184.714844 C 115.207031 185.265625 114.207031 185.15625 113.65625 184.472656 C 113.421875 184.175781 113.304688 183.824219 113.304688 183.476562 L 113.300781 147.605469 C 113.300781 146.722656 114.015625 146.007812 114.894531 146.007812 C 115.316406 146.007812 115.695312 146.175781 115.984375 146.4375 L 131.554688 159.011719 " fill-opacity="1" fill-rule="evenodd"/><g clip-path="url(#clip-3)"><path fill="rgb(6.269836%, 5.879211%, 5.099487%)" d="M 133.140625 195.910156 C 132.828125 200.566406 131.3125 205.839844 128.585938 211.726562 C 125.890625 217.535156 122.027344 223.960938 116.984375 230.996094 C 111.847656 238.160156 106.53125 244.097656 101.734375 249.453125 C 94.910156 257.074219 89.164062 263.492188 86.59375 270.605469 C 82.25 282.632812 87.160156 290.78125 92.121094 299.023438 C 97.117188 307.3125 102.164062 315.695312 99.042969 328.09375 C 96.972656 336.3125 93.164062 343.472656 89.488281 350.378906 C 81.136719 366.085938 73.496094 380.457031 90.640625 402.355469 L 88.140625 404.3125 C 69.714844 380.78125 77.816406 365.546875 86.675781 348.882812 C 90.265625 342.136719 93.984375 335.144531 95.953125 327.324219 C 98.753906 316.203125 94.050781 308.394531 89.394531 300.664062 C 84.042969 291.777344 78.75 282.988281 83.609375 269.535156 C 86.386719 261.832031 92.320312 255.207031 99.367188 247.335938 C 104.078125 242.078125 109.296875 236.25 114.394531 229.136719 C 119.328125 222.25 123.097656 216 125.695312 210.394531 C 128.257812 204.863281 129.679688 199.960938 129.964844 195.703125 L 133.140625 195.910156 " fill-opacity="1" fill-rule="evenodd"/></g><g clip-path="url(#clip-4)"><path fill="rgb(6.269836%, 5.879211%, 5.099487%)" d="M 191.65625 182.175781 C 187.09375 190.144531 182.949219 200.371094 179.230469 212.863281 C 175.492188 225.414062 172.183594 240.230469 169.3125 257.300781 C 167.945312 265.445312 166.949219 273.046875 165.984375 280.402344 C 163.320312 300.769531 160.890625 319.296875 151.808594 340.78125 C 151.808594 340.863281 151.808594 340.945312 151.816406 341.027344 C 152.105469 343.957031 157.042969 347.128906 165.144531 349.996094 C 173.742188 353.046875 185.691406 355.550781 199.421875 356.941406 C 213.703125 358.390625 229.898438 358.632812 246.230469 357.019531 C 263.402344 355.324219 280.722656 351.582031 296.132812 345.046875 C 309.3125 339.464844 321.089844 331.832031 330.175781 321.691406 C 330.628906 319.402344 327.640625 312.316406 323.910156 303.46875 C 318.132812 289.765625 310.648438 272.015625 311.171875 258.769531 L 314.34375 258.894531 C 313.851562 271.433594 321.183594 288.816406 326.835938 302.238281 C 330.980469 312.058594 334.269531 319.855469 333.097656 323.023438 L 333 323.296875 L 332.792969 323.527344 C 323.339844 334.183594 311.074219 342.167969 297.367188 347.976562 C 281.636719 354.644531 264 358.457031 246.539062 360.179688 C 229.988281 361.816406 213.578125 361.570312 199.109375 360.105469 C 185.109375 358.6875 172.894531 356.125 164.089844 353 C 154.789062 349.703125 149.078125 345.609375 148.65625 341.339844 C 148.617188 340.976562 148.617188 340.613281 148.65625 340.25 L 148.679688 340.007812 L 148.773438 339.789062 C 157.78125 318.589844 160.1875 300.207031 162.835938 279.992188 C 163.808594 272.554688 164.816406 264.867188 166.175781 256.78125 C 169.074219 239.566406 172.410156 224.625 176.179688 211.953125 C 177.773438 206.609375 183.070312 184.265625 191.65625 182.175781 " fill-opacity="1" fill-rule="evenodd"/></g><path fill="rgb(6.269836%, 5.879211%, 5.099487%)" d="M 279.089844 150.644531 C 281.15625 151.605469 283.15625 152.597656 285.085938 153.621094 C 306.007812 164.699219 318.78125 179.367188 323.410156 197.621094 C 328.011719 215.769531 324.496094 237.382812 312.859375 262.457031 C 311.351562 265.710938 309.703125 269.027344 307.917969 272.398438 L 307.839844 272.53125 C 297.222656 289.875 286.195312 302.371094 274.753906 310.015625 C 263.144531 317.78125 251.125 320.558594 238.707031 318.367188 C 238.496094 318.332031 238.304688 318.253906 238.128906 318.144531 C 227.089844 312.535156 221.183594 300.4375 220.414062 281.855469 C 219.65625 263.648438 223.847656 239.070312 232.976562 208.136719 L 233.007812 208.03125 C 240.921875 184.4375 245.746094 164.132812 247.476562 147.128906 C 249.191406 130.261719 247.863281 116.671875 243.496094 106.378906 C 243.152344 105.570312 243.523438 104.632812 244.335938 104.289062 C 244.707031 104.132812 245.109375 104.128906 245.464844 104.25 C 249.066406 105.367188 254.445312 107.964844 255.519531 116.316406 C 253.464844 113.769531 251.5 111.738281 249.617188 110.214844 C 249.019531 109.726562 248.429688 109.292969 247.847656 108.917969 C 251.277344 119.15625 252.210938 131.996094 250.636719 147.4375 C 248.882812 164.6875 244.011719 185.222656 236.023438 209.039062 C 226.992188 239.644531 222.847656 263.871094 223.585938 281.730469 C 224.300781 299.015625 229.601562 310.191406 239.472656 315.265625 C 250.984375 317.242188 262.160156 314.613281 272.988281 307.375 C 284.039062 299.988281 294.75 287.820312 305.121094 270.878906 C 306.871094 267.566406 308.488281 264.316406 309.972656 261.121094 C 321.289062 236.730469 324.738281 215.820312 320.320312 198.390625 C 315.925781 181.054688 303.6875 167.070312 283.605469 156.433594 C 281.726562 155.4375 279.773438 154.46875 277.753906 153.535156 L 279.089844 150.644531 " fill-opacity="1" fill-rule="evenodd"/><path fill="rgb(6.269836%, 5.879211%, 5.099487%)" d="M 258.695312 108.832031 C 256.726562 105.636719 254.4375 102.8125 251.832031 100.375 C 249.226562 97.9375 246.292969 95.863281 243.03125 94.160156 C 249.527344 91.875 261.035156 101.355469 258.695312 108.832031 " fill-opacity="1" fill-rule="evenodd"/><path fill="rgb(6.269836%, 5.879211%, 5.099487%)" d="M 264.5 102.167969 C 263.476562 98.707031 261.382812 95.292969 258.671875 92.269531 C 255.769531 89.03125 252.164062 86.246094 248.414062 84.304688 C 255.5625 83.394531 267.671875 93.085938 264.5 102.167969 " fill-opacity="1" fill-rule="evenodd"/><path fill="rgb(6.269836%, 5.879211%, 5.099487%)" d="M 272.183594 189.878906 C 273.824219 180.113281 275.292969 171.355469 275.886719 165.140625 C 276.78125 155.789062 277.082031 144.871094 276.488281 133.75 C 275.964844 124.054688 274.769531 114.207031 272.6875 105.125 C 271.871094 101.554688 270.621094 96.179688 268.691406 91.289062 C 266.855469 86.617188 264.417969 82.398438 261.214844 80.800781 C 266.34375 79.917969 270.3125 86.71875 271.65625 90.132812 C 273.660156 95.226562 274.949219 100.75 275.785156 104.414062 C 277.910156 113.675781 279.132812 123.707031 279.660156 133.589844 C 280.261719 144.855469 279.953125 155.933594 279.046875 165.441406 C 278.441406 171.835938 276.964844 180.617188 275.320312 190.40625 C 270.910156 216.699219 265.253906 250.367188 272.042969 262.199219 C 256.890625 263.757812 271.332031 194.953125 272.183594 189.878906 " fill-opacity="1" fill-rule="evenodd"/><path fill="rgb(6.269836%, 5.879211%, 5.099487%)" d="M 248.617188 120.238281 C 241.066406 120.238281 233.859375 117.054688 228.589844 111.921875 C 223.445312 106.914062 220.140625 100.042969 220.140625 92.453125 C 220.140625 84.78125 223.164062 77.832031 228.058594 72.796875 C 232.957031 67.75 239.726562 64.628906 247.207031 64.628906 C 248.703125 64.628906 250.179688 64.753906 251.625 64.992188 C 258.316406 66.089844 263.984375 69.644531 267.96875 74.605469 C 271.941406 79.550781 274.25 85.890625 274.25 92.566406 C 274.25 94.109375 274.121094 95.691406 273.859375 97.292969 L 270.722656 96.78125 C 270.953125 95.386719 271.0625 93.972656 271.0625 92.566406 C 271.0625 86.617188 269.015625 80.984375 265.488281 76.601562 C 261.980469 72.230469 256.996094 69.09375 251.109375 68.128906 C 249.867188 67.921875 248.5625 67.816406 247.207031 67.816406 C 240.617188 67.816406 234.648438 70.566406 230.332031 75.011719 C 226.003906 79.472656 223.328125 85.636719 223.328125 92.453125 C 223.328125 99.148438 226.253906 105.210938 230.804688 109.640625 C 235.5 114.214844 241.910156 117.050781 248.617188 117.050781 L 248.617188 120.238281 " fill-opacity="1" fill-rule="evenodd"/><path fill="rgb(6.269836%, 5.879211%, 5.099487%)" d="M 161.417969 68.226562 C 178.460938 80.792969 195.976562 78.984375 213.945312 62.796875 C 214.597656 62.207031 215.605469 62.261719 216.195312 62.914062 C 216.503906 63.257812 216.636719 63.695312 216.59375 64.125 C 216.195312 75.226562 218.347656 83.496094 223.046875 88.929688 L 220.644531 91.011719 C 215.921875 85.550781 213.5 77.710938 213.378906 67.496094 C 190.113281 86.734375 171.554688 81.503906 161.417969 68.226562 " fill-opacity="1" fill-rule="evenodd"/><path fill="rgb(6.269836%, 5.879211%, 5.099487%)" d="M 182.140625 78.171875 C 181.382812 82.925781 180.496094 87.660156 179.492188 92.382812 C 178.476562 97.125 177.617188 100.824219 176.34375 105.617188 C 176.167969 106.164062 176.171875 106.195312 177.046875 106.550781 C 178.441406 107.121094 180.640625 107.707031 183.652344 108.308594 L 183.839844 108.347656 L 183.964844 108.402344 C 186.269531 109.398438 187.503906 112.617188 188.972656 116.453125 C 191.066406 121.945312 193.738281 128.925781 199.996094 130.09375 C 203.335938 130.722656 207.269531 129.429688 211.789062 126.21875 C 216.550781 122.84375 221.886719 117.390625 227.789062 109.859375 L 230.292969 111.828125 C 224.207031 119.59375 218.648438 125.253906 213.632812 128.8125 C 208.375 132.542969 203.632812 134.015625 199.410156 133.222656 C 191.398438 131.722656 188.375 123.8125 185.996094 117.585938 C 184.828125 114.527344 183.839844 111.953125 182.808594 111.378906 C 179.683594 110.742188 177.363281 110.117188 175.851562 109.503906 C 173.488281 108.542969 172.535156 107.316406 173 105.824219 C 174.25 101.117188 175.375 96.414062 176.378906 91.722656 C 177.386719 86.992188 178.265625 82.3125 179.003906 77.675781 L 182.140625 78.171875 " fill-opacity="1" fill-rule="evenodd"/><path fill="rgb(6.269836%, 5.879211%, 5.099487%)" d="M 217.285156 124.621094 C 218.390625 127.859375 219.210938 131.054688 219.746094 134.203125 C 220.277344 137.347656 220.519531 140.449219 220.46875 143.511719 L 217.292969 143.464844 C 217.339844 140.617188 217.109375 137.703125 216.605469 134.726562 C 216.105469 131.753906 215.324219 128.726562 214.269531 125.640625 L 217.285156 124.621094 " fill-opacity="1" fill-rule="evenodd"/><path fill="rgb(6.269836%, 5.879211%, 5.099487%)" d="M 137.226562 106.832031 C 133.867188 96.234375 137.972656 92.105469 142.339844 87.707031 C 144.59375 85.4375 146.929688 83.09375 147.980469 79.601562 C 148.53125 77.769531 148.867188 75.746094 149.222656 73.621094 C 149.902344 69.578125 150.632812 65.175781 152.96875 60.652344 C 155.210938 56.304688 159.144531 51.796875 165.234375 47.917969 C 170.28125 44.707031 176.84375 41.914062 185.191406 40.003906 C 196.882812 37.332031 209.488281 38.089844 219.761719 43.089844 C 228.78125 47.484375 236 55.121094 239.253906 66.535156 L 236.1875 67.40625 C 233.214844 56.957031 226.613281 49.972656 218.367188 45.957031 C 208.761719 41.28125 196.921875 40.585938 185.898438 43.109375 C 177.941406 44.925781 171.710938 47.574219 166.941406 50.609375 C 161.363281 54.15625 157.796875 58.21875 155.792969 62.109375 C 153.691406 66.1875 152.996094 70.332031 152.359375 74.144531 C 151.988281 76.378906 151.632812 78.507812 151.03125 80.511719 C 149.746094 84.765625 147.128906 87.40625 144.59375 89.949219 C 140.929688 93.640625 137.484375 97.109375 140.265625 105.875 L 137.226562 106.832031 " fill-opacity="1" fill-rule="evenodd"/><path fill="rgb(6.269836%, 5.879211%, 5.099487%)" d="M 122.082031 139.222656 C 121.140625 130.5625 122 122.734375 124.328125 116.769531 L 124.328125 116.761719 C 126.726562 110.601562 130.699219 106.375 135.914062 105.140625 C 141.984375 103.703125 148.445312 106.835938 153.984375 113.058594 C 159.292969 119.03125 163.808594 127.917969 166.265625 138.304688 C 168.722656 148.683594 168.667969 158.644531 166.59375 166.367188 C 164.429688 174.414062 160.054688 180.105469 153.972656 181.546875 L 153.78125 181.589844 C 153.097656 181.742188 152.394531 181.832031 151.679688 181.871094 L 151.671875 181.871094 C 150.882812 181.910156 150.101562 181.882812 149.332031 181.785156 L 149.722656 178.621094 C 150.332031 178.699219 150.9375 178.726562 151.515625 178.695312 C 152.089844 178.667969 152.667969 178.582031 153.253906 178.445312 L 153.261719 178.445312 C 158.09375 177.296875 161.660156 172.449219 163.519531 165.542969 C 165.460938 158.300781 165.496094 148.890625 163.167969 139.027344 C 160.832031 129.167969 156.585938 120.777344 151.605469 115.179688 C 146.847656 109.828125 141.480469 107.097656 136.636719 108.242188 C 132.515625 109.21875 129.308594 112.738281 127.289062 117.921875 C 125.144531 123.425781 124.359375 130.738281 125.242188 138.886719 L 122.082031 139.222656 " fill-opacity="1" fill-rule="evenodd"/><path fill="rgb(6.269836%, 5.879211%, 5.099487%)" d="M 167.589844 151.582031 C 172.828125 156.273438 179.824219 158.757812 188.570312 159.027344 L 188.480469 162.203125 C 178.960938 161.910156 171.289062 159.152344 165.472656 153.945312 L 167.589844 151.582031 " fill-opacity="1" fill-rule="evenodd"/><path fill="rgb(6.269836%, 5.879211%, 5.099487%)" d="M 253.167969 67.875 C 250.742188 61.199219 246.714844 54.847656 241.667969 49.453125 C 235.886719 43.28125 228.78125 38.375 221.214844 35.71875 C 213.734375 33.089844 205.808594 32.660156 198.304688 35.390625 C 194.257812 36.863281 190.320312 39.253906 186.625 42.714844 L 184.460938 40.398438 C 188.488281 36.625 192.789062 34.011719 197.21875 32.398438 C 205.464844 29.402344 214.125 29.855469 222.261719 32.714844 C 230.3125 35.542969 237.863281 40.746094 243.984375 47.289062 C 249.324219 52.992188 253.585938 59.722656 256.15625 66.792969 L 253.167969 67.875 " fill-opacity="1" fill-rule="evenodd"/><g clip-path="url(#clip-5)"><path fill="rgb(6.269836%, 5.879211%, 5.099487%)" d="M 218.460938 31.933594 C 223.941406 29.460938 229.277344 28.476562 234.285156 28.554688 C 240.09375 28.644531 245.4375 30.167969 250.046875 32.441406 C 259.996094 37.335938 262.789062 43.09375 265.65625 49.007812 C 267.503906 52.8125 269.386719 56.683594 273.4375 60.320312 C 275.808594 62.441406 278.597656 63.691406 281.257812 64.882812 C 285.046875 66.582031 288.613281 68.179688 291.007812 71.980469 C 294.304688 77.199219 293.375 81.910156 292.433594 86.71875 C 291.695312 90.484375 290.9375 94.324219 292.601562 98.277344 C 294.808594 103.515625 298.910156 105.484375 302.949219 107.425781 C 306.300781 109.035156 309.617188 110.625 312.140625 113.871094 L 312.132812 113.871094 C 314.324219 116.683594 315.378906 119.527344 315.53125 122.316406 C 315.707031 125.519531 314.699219 128.601562 312.878906 131.480469 C 311.125 134.242188 308.59375 136.820312 305.632812 139.125 L 305.632812 139.132812 C 297.550781 145.425781 286.082031 149.742188 278.445312 150.164062 L 278.269531 146.984375 C 285.359375 146.597656 296.074219 142.542969 303.675781 136.617188 L 303.679688 136.621094 C 306.359375 134.535156 308.632812 132.226562 310.183594 129.773438 C 311.671875 127.433594 312.492188 124.976562 312.355469 122.492188 C 312.238281 120.324219 311.394531 118.089844 309.632812 115.828125 L 309.625 115.828125 C 307.546875 113.15625 304.578125 111.730469 301.582031 110.292969 C 297 108.089844 292.351562 105.855469 289.679688 99.507812 C 287.628906 94.648438 288.476562 90.335938 289.308594 86.105469 C 290.128906 81.921875 290.9375 77.816406 288.320312 73.671875 C 286.4375 70.6875 283.296875 69.28125 279.960938 67.789062 C 277.082031 66.496094 274.066406 65.144531 271.324219 62.683594 C 266.789062 58.621094 264.773438 54.46875 262.792969 50.386719 C 260.167969 44.976562 257.609375 39.710938 248.640625 35.292969 C 244.414062 33.210938 239.527344 31.8125 234.238281 31.730469 C 229.679688 31.660156 224.804688 32.5625 219.769531 34.835938 L 218.460938 31.933594 " fill-opacity="1" fill-rule="evenodd"/></g><path fill="rgb(6.269836%, 5.879211%, 5.099487%)" d="M 205.738281 92.367188 C 202.179688 90.742188 196.75 92.265625 193.933594 94.953125 C 191.996094 89.335938 204.464844 85.574219 205.738281 92.367188 " fill-opacity="1" fill-rule="evenodd"/><path fill="rgb(6.269836%, 5.879211%, 5.099487%)" d="M 203.40625 120.292969 C 201.285156 119.558594 198.871094 117.746094 196.269531 114.648438 C 196.003906 114.34375 195.855469 113.929688 195.882812 113.492188 C 195.945312 112.617188 196.707031 111.957031 197.582031 112.019531 C 199.980469 112.1875 202.160156 111.789062 204.117188 110.824219 C 206.082031 109.851562 207.859375 108.289062 209.445312 106.140625 C 209.710938 105.75 210.140625 105.476562 210.648438 105.441406 C 211.523438 105.375 212.289062 106.035156 212.355469 106.910156 C 212.671875 111.113281 212.179688 114.570312 211.035156 116.921875 C 210.289062 118.460938 209.242188 119.570312 207.945312 120.179688 C 206.609375 120.804688 205.082031 120.867188 203.40625 120.292969 Z M 201.042969 115.066406 C 202.296875 116.207031 203.433594 116.929688 204.441406 117.273438 C 205.300781 117.574219 206.027344 117.570312 206.601562 117.300781 C 207.210938 117.019531 207.742188 116.410156 208.171875 115.527344 C 208.710938 114.414062 209.0625 112.9375 209.199219 111.152344 C 208.050781 112.191406 206.824219 113.03125 205.519531 113.675781 C 204.109375 114.371094 202.617188 114.835938 201.042969 115.066406 " fill-opacity="1" fill-rule="evenodd"/><g clip-path="url(#clip-6)"><path fill="rgb(6.269836%, 5.879211%, 5.099487%)" d="M 313.714844 338.316406 C 316.140625 351.21875 318.316406 364.1875 320.242188 377.226562 C 322.109375 389.867188 323.75 402.644531 325.164062 415.554688 L 321.964844 415.554688 C 320.570312 402.867188 318.941406 390.246094 317.089844 377.6875 C 315.160156 364.621094 312.992188 351.691406 310.589844 338.902344 L 313.714844 338.316406 " fill-opacity="1" fill-rule="evenodd"/></g><path fill="rgb(6.269836%, 5.879211%, 5.099487%)" d="M 279.421875 138.214844 C 276.398438 143.375 272.226562 147.570312 266.898438 150.796875 C 261.628906 153.992188 255.25 156.234375 247.769531 157.511719 L 247.234375 154.375 C 254.339844 153.160156 260.347656 151.0625 265.257812 148.085938 C 270.117188 145.136719 273.929688 141.308594 276.683594 136.605469 L 279.421875 138.214844 " fill-opacity="1" fill-rule="evenodd"/><path fill="rgb(6.269836%, 5.879211%, 5.099487%)" d="M 71.074219 205.945312 C 74.15625 205.375 77.074219 204.605469 79.828125 203.636719 C 82.574219 202.671875 85.144531 201.503906 87.53125 200.148438 L 89.105469 202.914062 C 86.535156 204.371094 83.792969 205.613281 80.886719 206.636719 C 77.992188 207.660156 74.910156 208.472656 71.648438 209.070312 L 71.074219 205.945312 " fill-opacity="1" fill-rule="evenodd"/><g clip-path="url(#clip-7)"><path fill="rgb(6.269836%, 5.879211%, 5.099487%)" d="M 297.703125 415.410156 L 300.140625 415.554688 L 323.523438 415.554688 C 320.0625 390.929688 316.273438 365.28125 312.148438 338.609375 C 288.492188 352.699219 259.976562 360.257812 226.609375 361.285156 C 249.132812 390.277344 272.828125 408.316406 297.703125 415.410156 " fill-opacity="1" fill-rule="evenodd"/></g><path fill="rgb(6.269836%, 5.879211%, 5.099487%)" d="M 215.773438 125.132812 C 217.507812 131.070312 218.371094 134.039062 218.371094 134.039062 C 225.722656 138.578125 234.960938 128.613281 236.226562 115.359375 C 231.4375 112.347656 229.042969 110.839844 229.042969 110.839844 C 224.984375 116.296875 220.566406 121.058594 215.773438 125.132812 " fill-opacity="1" fill-rule="evenodd"/><path fill="rgb(6.269836%, 5.879211%, 5.099487%)" d="M 88.039062 200.042969 C 92 198.101562 95.777344 195.710938 99 192.675781 L 101.179688 194.996094 C 97.484375 198.46875 93.085938 201.199219 88.503906 203.347656 C 88.496094 202.253906 88.34375 201.140625 88.039062 200.042969 " fill-opacity="1" fill-rule="evenodd"/></svg>