<?xml version="1.0" encoding="UTF-8"?><svg xmlns="http://www.w3.org/2000/svg" xmlns:xlink="http://www.w3.org/1999/xlink" width="375" zoomAndPan="magnify" viewBox="0 0 375 374.999991" height="374.999991" preserveAspectRatio="xMidYMid meet" version="1.0"><defs><filter x="0%" y="0%" width="100%" xmlns:xlink="http://www.w3.org/1999/xlink" xlink:type="simple" xlink:actuate="onLoad" height="100%" id="filter-remove-color" xlink:show="other"><feColorMatrix values="0 0 0 0 1 0 0 0 0 1 0 0 0 0 1 0 0 0 1 0" color-interpolation-filters="sRGB"/></filter><clipPath id="clip-0"><path d="M 47.597656 47.597656 L 327.347656 47.597656 L 327.347656 327.347656 L 47.597656 327.347656 Z M 47.597656 47.597656 " clip-rule="nonzero"/></clipPath><mask id="mask-0"><g filter="url(#filter-remove-color)"><rect x="-37.5" width="450" fill="rgb(0%, 0%, 0%)" y="-37.499999" height="449.999989" fill-opacity="0.0471"/></g></mask><clipPath id="clip-1"><path d="M 0.160156 0.160156 L 274.71875 0.160156 L 274.71875 274.71875 L 0.160156 274.71875 Z M 0.160156 0.160156 " clip-rule="nonzero"/></clipPath><clipPath id="clip-2"><rect x="0" width="275" y="0" height="275"/></clipPath></defs><g clip-path="url(#clip-0)"><path fill="rgb(18.429565%, 18.03894%, 25.489807%)" d="M 187.472656 47.597656 C 110.21875 47.597656 47.597656 110.21875 47.597656 187.472656 C 47.597656 264.722656 110.21875 327.347656 187.472656 327.347656 C 264.722656 327.347656 327.347656 264.722656 327.347656 187.472656 C 327.347656 110.21875 264.722656 47.597656 187.472656 47.597656 Z M 187.472656 193.273438 C 184.265625 193.273438 181.667969 190.675781 181.667969 187.472656 C 181.667969 184.265625 184.265625 181.667969 187.472656 181.667969 C 190.675781 181.667969 193.273438 184.265625 193.273438 187.472656 C 193.273438 190.675781 190.675781 193.273438 187.472656 193.273438 Z M 187.472656 193.273438 " fill-opacity="1" fill-rule="nonzero"/></g><g mask="url(#mask-0)"><g transform="matrix(1, 0, 0, 1, 50, 50)"><g id="source-5" clip-path="url(#clip-2)"><g clip-path="url(#clip-1)"><path fill="rgb(100%, 100%, 100%)" d="M 137.472656 0.664062 C 61.914062 0.664062 0.664062 61.914062 0.664062 137.472656 C 0.664062 213.027344 61.914062 274.277344 137.472656 274.277344 C 213.027344 274.277344 274.277344 213.027344 274.277344 137.472656 C 274.277344 61.914062 213.027344 0.664062 137.472656 0.664062 Z M 137.472656 143.273438 C 134.265625 143.273438 131.667969 140.675781 131.667969 137.472656 C 131.667969 134.265625 134.265625 131.667969 137.472656 131.667969 C 140.675781 131.667969 143.273438 134.265625 143.273438 137.472656 C 143.273438 140.675781 140.675781 143.273438 137.472656 143.273438 Z M 137.472656 143.273438 " fill-opacity="1" fill-rule="nonzero"/></g></g></g></g><path fill="rgb(18.429565%, 18.03894%, 25.489807%)" d="M 187.472656 116.8125 C 148.445312 116.8125 116.8125 148.445312 116.8125 187.472656 C 116.8125 226.496094 148.445312 258.128906 187.472656 258.128906 C 226.496094 258.128906 258.128906 226.496094 258.128906 187.472656 C 258.128906 148.449219 226.496094 116.8125 187.472656 116.8125 Z M 187.472656 193.273438 C 184.265625 193.273438 181.667969 190.675781 181.667969 187.472656 C 181.667969 184.265625 184.265625 181.667969 187.472656 181.667969 C 190.675781 181.667969 193.273438 184.265625 193.273438 187.472656 C 193.273438 190.675781 190.675781 193.273438 187.472656 193.273438 Z M 187.472656 193.273438 " fill-opacity="1" fill-rule="nonzero"/><path fill="rgb(42.349243%, 38.819885%, 100%)" d="M 187.472656 144.507812 C 163.742188 144.507812 144.507812 163.742188 144.507812 187.472656 C 144.507812 211.199219 163.742188 230.433594 187.472656 230.433594 C 211.199219 230.433594 230.433594 211.199219 230.433594 187.472656 C 230.433594 163.742188 211.199219 144.507812 187.472656 144.507812 Z M 187.472656 193.273438 C 184.265625 193.273438 181.667969 190.675781 181.667969 187.472656 C 181.667969 184.265625 184.265625 181.667969 187.472656 181.667969 C 190.675781 181.667969 193.273438 184.265625 193.273438 187.472656 C 193.273438 190.675781 190.675781 193.273438 187.472656 193.273438 Z M 187.472656 193.273438 " fill-opacity="1" fill-rule="nonzero"/><path fill="rgb(100%, 100%, 100%)" d="M 187.472656 224.828125 C 166.875 224.828125 150.117188 208.070312 150.117188 187.472656 C 150.117188 166.875 166.875 150.117188 187.472656 150.117188 C 208.070312 150.117188 224.828125 166.875 224.828125 187.472656 C 224.828125 208.070312 208.070312 224.828125 187.472656 224.828125 Z M 187.472656 151.167969 C 167.453125 151.167969 151.167969 167.453125 151.167969 187.472656 C 151.167969 207.488281 167.453125 223.773438 187.472656 223.773438 C 207.488281 223.773438 223.773438 207.488281 223.773438 187.472656 C 223.773438 167.453125 207.488281 151.167969 187.472656 151.167969 Z M 187.472656 151.167969 " fill-opacity="1" fill-rule="nonzero"/><path fill="rgb(18.429565%, 18.03894%, 25.489807%)" d="M 187.472656 303.023438 C 156.605469 303.023438 127.589844 291.003906 105.761719 269.179688 C 83.9375 247.351562 71.917969 218.335938 71.917969 187.472656 C 71.917969 156.605469 83.9375 127.589844 105.761719 105.765625 C 127.589844 83.9375 156.605469 71.917969 187.472656 71.917969 C 218.335938 71.917969 247.351562 83.9375 269.179688 105.761719 C 291.003906 127.589844 303.023438 156.605469 303.023438 187.46875 C 303.023438 218.335938 291.003906 247.351562 269.179688 269.179688 C 247.351562 291.003906 218.335938 303.023438 187.472656 303.023438 Z M 187.472656 74.472656 C 157.289062 74.472656 128.910156 86.226562 107.570312 107.570312 C 86.226562 128.910156 74.472656 157.289062 74.472656 187.472656 C 74.472656 217.652344 86.226562 246.03125 107.570312 267.371094 C 128.910156 288.714844 157.289062 300.46875 187.472656 300.46875 C 217.652344 300.46875 246.03125 288.714844 267.371094 267.371094 C 288.714844 246.03125 300.46875 217.652344 300.46875 187.472656 C 300.46875 157.289062 288.714844 128.910156 267.371094 107.570312 C 246.03125 86.226562 217.652344 74.472656 187.472656 74.472656 Z M 187.472656 74.472656 " fill-opacity="1" fill-rule="nonzero"/><path fill="rgb(18.429565%, 18.03894%, 25.489807%)" d="M 187.472656 310.59375 C 154.582031 310.59375 123.664062 297.789062 100.410156 274.535156 C 77.152344 251.277344 64.347656 220.359375 64.347656 187.472656 C 64.347656 154.582031 77.152344 123.664062 100.410156 100.410156 C 123.664062 77.15625 154.582031 64.347656 187.472656 64.347656 C 220.359375 64.347656 251.277344 77.152344 274.53125 100.410156 C 297.789062 123.664062 310.59375 154.582031 310.59375 187.472656 C 310.59375 220.359375 297.789062 251.277344 274.53125 274.53125 C 251.277344 297.789062 220.359375 310.59375 187.472656 310.59375 Z M 187.472656 66.902344 C 155.265625 66.902344 124.988281 79.441406 102.214844 102.214844 C 79.441406 124.988281 66.902344 155.265625 66.902344 187.472656 C 66.902344 219.675781 79.441406 249.953125 102.214844 272.726562 C 124.988281 295.5 155.265625 308.042969 187.472656 308.042969 C 219.675781 308.042969 249.953125 295.5 272.726562 272.726562 C 295.5 249.953125 308.042969 219.675781 308.042969 187.472656 C 308.042969 155.265625 295.5 124.988281 272.726562 102.214844 C 249.953125 79.441406 219.675781 66.902344 187.472656 66.902344 Z M 187.472656 66.902344 " fill-opacity="1" fill-rule="nonzero"/><path fill="rgb(18.429565%, 18.03894%, 25.489807%)" d="M 187.472656 277.0625 C 138.070312 277.0625 97.882812 236.871094 97.882812 187.472656 C 97.882812 138.070312 138.070312 97.882812 187.472656 97.882812 C 236.871094 97.882812 277.058594 138.070312 277.058594 187.472656 C 277.058594 236.871094 236.871094 277.0625 187.472656 277.0625 Z M 187.472656 101.039062 C 139.8125 101.039062 101.039062 139.8125 101.039062 187.472656 C 101.039062 235.132812 139.8125 273.90625 187.472656 273.90625 C 235.128906 273.90625 273.90625 235.132812 273.90625 187.472656 C 273.90625 139.8125 235.128906 101.039062 187.472656 101.039062 Z M 187.472656 101.039062 " fill-opacity="1" fill-rule="nonzero"/><path fill="rgb(18.429565%, 18.03894%, 25.489807%)" d="M 187.472656 266.367188 C 143.96875 266.367188 108.574219 230.976562 108.574219 187.472656 C 108.574219 143.96875 143.96875 108.574219 187.472656 108.574219 C 230.972656 108.574219 266.367188 143.96875 266.367188 187.472656 C 266.367188 230.976562 230.972656 266.367188 187.472656 266.367188 Z M 187.472656 113.832031 C 146.867188 113.832031 113.832031 146.867188 113.832031 187.472656 C 113.832031 228.074219 146.867188 261.109375 187.472656 261.109375 C 228.074219 261.109375 261.109375 228.074219 261.109375 187.472656 C 261.109375 146.867188 228.074219 113.832031 187.472656 113.832031 Z M 187.472656 113.832031 " fill-opacity="1" fill-rule="nonzero"/><path fill="rgb(18.429565%, 18.03894%, 25.489807%)" d="M 187.472656 287.570312 C 132.277344 287.570312 87.371094 242.667969 87.371094 187.472656 C 87.371094 132.277344 132.277344 87.371094 187.472656 87.371094 C 242.667969 87.371094 287.570312 132.277344 287.570312 187.472656 C 287.570312 242.667969 242.667969 287.570312 187.472656 287.570312 Z M 187.472656 89.757812 C 133.589844 89.757812 89.757812 133.589844 89.757812 187.472656 C 89.757812 241.351562 133.589844 285.1875 187.472656 285.1875 C 241.351562 285.1875 285.183594 241.351562 285.183594 187.472656 C 285.183594 133.589844 241.351562 89.757812 187.472656 89.757812 Z M 187.472656 89.757812 " fill-opacity="1" fill-rule="nonzero"/></svg>